<svg xmlns="http://www.w3.org/2000/svg" viewBox="0 0 980.01 1106.67"><title>downloading</title><g id="Layer_2" data-name="Layer 2"><g id="Layer_1-2" data-name="Layer 1"><path d="M923.16,967.9l-.23-5a48,48,0,0,0-.63-5,33.19,33.19,0,0,0-3-9.26,25.07,25.07,0,0,0-2.48-3.89,20.38,20.38,0,0,0-3-3.08,16.33,16.33,0,0,0-6.45-3.35,22.92,22.92,0,0,0-9.07-5.6,32.81,32.81,0,0,0-10.68-1.7,39.86,39.86,0,0,0-18.3,4.43l-6.14,3.28c-.92.47-1.82.95-2.67,1.35s-1.67.77-2.51,1.1a39.4,39.4,0,0,1-11.6,2.52c-4.58.34-9.53,1.22-14.85,1.62-1.33.1-2.68.15-4.06.13a28.22,28.22,0,0,1-4.18-.33,21.35,21.35,0,0,1-8.63-3.22,33.05,33.05,0,0,1-2.53-7.9,49.9,49.9,0,0,1-.72-11.15,53,53,0,0,1,1.66-10.67c.44-1.79,1-3.58,1.56-5.36l2-5.44,1-2.72,1.08-2.68,2.11-5.34,2.24-5.24,1.08-2.61,1.13-2.58a254.74,254.74,0,0,1,17.61-33.26c4.07-6.66,8.18-13.85,12-21.26l2.76-5.6c.9-1.87,1.72-3.79,2.56-5.68,1.72-3.75,3.1-7.63,4.5-11.35l3.1-9.31c.86-3.08,1.77-6.07,2.66-9.07s1.56-6.06,2.37-9.22a88.07,88.07,0,0,0,1.72-10.16,53.66,53.66,0,0,0,.16-10.15,51.89,51.89,0,0,0-1.9-10.59,42.11,42.11,0,0,0-4.53-10.41,32.34,32.34,0,0,0-7.93-8.86,27.24,27.24,0,0,0-5.44-3.18,27,27,0,0,0-16.29-1.62,31.34,31.34,0,0,0-8.09,2.78A27.09,27.09,0,0,0,824.7,727a72.08,72.08,0,0,0-24,7.73,83.63,83.63,0,0,0-19.43,14.55c-7.69,1.77-16.2,5.48-23.93,9.43s-14.8,8-19.54,11.72a88.12,88.12,0,0,0-16.09,1.21,92.14,92.14,0,0,1-33.32-.32c-11-2-21.58-5.45-32-9.21A21.42,21.42,0,0,1,651,759c-6.84-5-11.43-8.55-16-11.7-1.14-.78-2.28-1.53-3.47-2.25s-2.34-1.51-3.59-2.26-2.6-1.47-4-2.31-2.85-1.69-4.44-2.6c-.91-1.2-1.75-2.47-2.65-3.76s-1.86-2.58-2.92-3.92c-2.07-2.73-4.48-5.67-7.59-9.09a230.64,230.64,0,0,1-15-18.42q-3.52-4.79-6.8-9.76c-2.2-3.3-4.24-6.74-6.36-10.12a79.94,79.94,0,0,0-8.81-12.48,18.55,18.55,0,0,1-2.67-3.58,26.53,26.53,0,0,1-2-4.86q-.81-2.46-1.69-4.79l-1.77-4.59q-1.77-4.52-3.86-8.61c-.69-1.37-1.44-2.7-2.17-4s-1.48-2.62-2.26-3.89a81.51,81.51,0,0,0-5.08-7.3c-2.57-3.31-3-4.67-3.43-7.95a49.3,49.3,0,0,0-2.11-8.63c-1-3.23-2.32-6.78-3.86-10.59-4.21-10.5-10.84-18.27-11.7-21.8-2.1-8.71-3.6-16-8-26.72-2.79-6.55-5.37-13.39-8.2-20-1.39-3.33-2.78-6.62-4.22-9.82s-3-6.28-4.52-9.24l-4.69-9.12c-1.51-3-2.94-5.91-4.32-8.85s-2.85-5.81-4.22-8.75l-2.05-4.43-1-2.24-1.09-2.23a55,55,0,0,0-7.33-11c-2.51-2.91-4.79-5.41-6.2-8.48l-2.54-5.57c-.88-1.8-1.77-3.58-2.71-5.4a96.53,96.53,0,0,0-7.05-11.39q-6.35-8.75-13.14-17.17t-14.1-16.39c-1.75-1.88-3.49-3.74-5.22-5.36a45.86,45.86,0,0,0-5-4.11,27.74,27.74,0,0,1-4.65-3.89c-1.36-1.38-2.69-2.9-4.41-4.82-4.1-4.45-8.39-8.79-12.94-12.9-1.16-1-2.21-2.07-3.47-3.07l-3.7-3c-1.22-1-2.56-1.88-3.85-2.81s-2.58-1.86-3.94-2.67a139.09,139.09,0,0,0-34.35-15.36,28.54,28.54,0,0,0-7.49-1.08,12.94,12.94,0,0,1-3.75-.43,27.34,27.34,0,0,1-4-1.73q-2.29-1.13-4.52-2.11c-1.49-.66-3-1.18-4.48-1.71a61.53,61.53,0,0,0-9.05-2.42c-1.53-.32-3.1-.53-4.7-.71s-3.22-.34-4.89-.43a91.94,91.94,0,0,0-10.64.16,29.26,29.26,0,0,1-3.65.13,21.61,21.61,0,0,1-4.27-.61c-1.05-.23-2.06-.46-3.07-.65l-3-.49c-1.94-.25-3.8-.46-5.58-.53a57.93,57.93,0,0,0-10,.33c-6.42.78-12.58,2.59-20.46,5.56a106.34,106.34,0,0,0-21.64,1.15c-2.43.38-4.61.84-6.61,1.33s-3.79,1.14-5.52,1.71c-3.45,1.13-6.48,2.45-9.9,3.39-6.5,2-13.58,1.58-23.23,4.92a45.56,45.56,0,0,0-6.84,3c-1,.53-2,1.05-2.91,1.58l-2.64,1.63c-1.7,1.06-3.32,2-4.94,2.91a26.51,26.51,0,0,1-5,2.23,117.1,117.1,0,0,0-25,11.31,317.66,317.66,0,0,0-26.66,18.17c-11,8.22-19.08,17-21.94,23.77q-2.78,1.72-5.37,3.53-1.3.91-2.55,1.85t-2.37,2q-2.32,2-4.48,4.15a60.42,60.42,0,0,0-4,4.54c-1.27,1.58-2.53,3.17-3.66,4.87s-2.2,3.49-3.23,5.32q-.78,1.37-1.52,2.79c-.47,1-.92,1.95-1.37,2.95q-1.34,3-2.57,6.18c-1.64,1.55-3.12,3.1-4.55,4.63a60.75,60.75,0,0,0-4,4.61c-1.21,1.57-2.35,3.14-3.42,4.75-.54.8-1.07,1.61-1.57,2.44s-1,1.69-1.41,2.55c-.91,1.72-1.78,3.5-2.61,5.34s-1.52,3.82-2.25,5.86-1.42,4.17-2,6.47-1.16,4.7-1.71,7.25a40.58,40.58,0,0,0-4.49,5.79c-.77,1.18-1.53,2.48-2.28,3.92a47.81,47.81,0,0,0-2,4.84c-1,2.76-2.06,5.52-3,8.33s-2,5.59-2.85,8.41c-1.82,5.64-3.49,11.34-4.93,17.08a163.77,163.77,0,0,0-5.15,34.45,21.19,21.19,0,0,1-.66,5.5,80.85,80.85,0,0,0-1.2,40.62A62.25,62.25,0,0,0,.13,647.39c.92,16.44,2.46,33.53,6,48.76l9,39.42c1.69,7.31,3.83,14.92,6.3,22.41,1.24,3.74,2.54,7.46,3.95,11.08s2.78,7.2,4.29,10.61c5.71,13.18,10.53,24.6,15.87,38a283.19,283.19,0,0,0,20.79,41.31c7.64,12.41,13.82,23.4,20.76,35.85,1.81,3.18,3.66,6.43,5.61,9.67s4,6.49,6,9.7,4.21,6.4,6.29,9.45,4.18,6.06,6.24,9c8.49,12,15.38,23.11,23.26,35.64A211.66,211.66,0,0,0,162.47,1003c6.29,6.39,12.75,11.09,18,12.8a14.76,14.76,0,0,1,3.94,1.89,22.87,22.87,0,0,1,3.56,3q.91.87,1.86,1.72c.64.56,1.32,1.06,2,1.58q2.05,1.54,4.24,3c1.48.91,3,1.74,4.59,2.56q1.17.61,2.37,1.19t2.45,1c1.64.64,3.3,1.27,5,1.8s3.38.91,5.07,1.29a43.84,43.84,0,0,0,5.08.86c1.69.2,3.36.38,5,.44a19.56,19.56,0,0,1,4.85.55,20,20,0,0,1,3.74,1.64c4.59,2.48,11.51,4.35,19.76,5.7,11.45,1.83,20.53-.63,25.1.39,8.49,1.86,15,4,26.2,4.82,14.17,1.09,28.8,2.74,42.43,3.08,14,.34,27,.85,40.35,2.66.36,0,.8,0,1.21.08,9.08.59,14.78-1.46,20.78-1,6.88.48,12.14,2.84,21.75,3.22l24.52,1.13c8.16.36,16.25.6,24.05.42,13.22-.27,24.36,0,37.61.92,3.87.27,7.85.52,11.9.69s8.16.25,12.27.3c8.23.09,16.46,0,24.25-.35,13.57-.56,25.23-.61,38.79-.11a425,425,0,0,0,47.23-.74c14.57-1.19,27.08-1.57,41.3-1.8a371.19,371.19,0,0,0,43.52-3.14c15.42-2.16,29.3-3.12,44.53-3.85,13.74-.65,28.24-2.3,42.38-3.59,1.35-.12,2.59-.39,3.85-.54l-.48-5.31h0l.48,5.31c1.69-.09,3.44-.2,5.28-.39a228,228,0,0,0,24.24-3.5,118.5,118.5,0,0,0,11.92-3.09,85.76,85.76,0,0,0,11.32-4.41A92.55,92.55,0,0,0,898.88,1024c.68-.55,1.38-1.09,2.05-1.65l2-1.77,1-.89.94-1,1.9-1.91a69,69,0,0,0,6.91-8.72,53.78,53.78,0,0,0,7.83-19.31A95.81,95.81,0,0,0,923.16,967.9Z" style="fill:#f2c617;"/><path d="M492.39,1073.9c-.1-.48-.22-1-.36-1.43s-.39-.94-.62-1.38a9.43,9.43,0,0,0-1.74-2.4c-.66-.66-1.37-1.23-2-1.82s-1.33-1-2-1.53c-1.29-.92-2.54-1.74-3.82-2.54a12,12,0,0,0-7-1.9c-2.14.22-3.2-.74-3.11-1.71a4.18,4.18,0,0,0-.4-1.49,13.23,13.23,0,0,1-.69-2.38,3.6,3.6,0,0,0-.32-.93l-5.3.68h0l5.37-.68c0-.11,0-.23,0-.34-.14-2.44,0-5-.84-7.24a9.08,9.08,0,0,1-.42-6.16c.57-1.93-.18-4-.1-6s-.64-3.72-3.38-4.84c3.17-1.94,4.33-4.14,2.44-5.74s-1.81-2.34,0-3.85.78-3.43-2.18-5.84c1.72-.85,3-1.9,3-3.55,0-2.5.61-5.05,0-7.48a10.77,10.77,0,0,1,.13-6,14.47,14.47,0,0,0,.1-7.7,9.21,9.21,0,0,1,.08-6c.73-1.93.08-4.14.23-6.22a4.69,4.69,0,0,0-3.29-5.21c4.33-2.84,4.15-5.39-.24-7.76,4.4-2.66,3.46-6.3-.61-7.82,1.21-.83,2.72-1.82,2.56-3.11-.15-1-.19-2-.29-3.07s-.21-2.06-.43-3.07a12.15,12.15,0,0,0-1-2.9,8.52,8.52,0,0,0-2.1-2.45c-.46-.33-.37-.63-.28-1.08a9.19,9.19,0,0,0,.19-2.2,3,3,0,0,0-.55-1.52,3.45,3.45,0,0,0-1.34-1,10.71,10.71,0,0,0-2.34-.68,9.22,9.22,0,0,0,.75-2.31,3.32,3.32,0,0,0-.49-2.24,40.14,40.14,0,0,0-5.69-6.87,3.47,3.47,0,0,0-1.36-.82,3.87,3.87,0,0,0-1.65,0c-.94.17-1.28.12-1.46-1a4.48,4.48,0,0,0-2.19-3.31,4.41,4.41,0,0,0-4,.46c-1.06.61-1.22.43-1.43-.63a3.87,3.87,0,0,0-1-2,4.75,4.75,0,0,0-1.75-1.08c-.93-.38-2.06.16-3,.72s-1.57,1.09-1.82.77a13.49,13.49,0,0,0-2-2.12,4.91,4.91,0,0,0-1.2-.74,4.61,4.61,0,0,0-1.51-.25c-1.34-.05-2.79-.08-4.22,0a11.69,11.69,0,0,0-2.14.34,10.2,10.2,0,0,0-1,.3,7.92,7.92,0,0,0-.95.51,44.88,44.88,0,0,1-7.37,3.5,2,2,0,0,0-1,1,4.72,4.72,0,0,0-.29,1.48c-.07,1-.06,1.83-.72,2.05a16.83,16.83,0,0,0-2.52.88,4.59,4.59,0,0,0-2,1.75,46.38,46.38,0,0,0-3.3,7.14,2.87,2.87,0,0,0,.05,2.56c.62,1,.12,1.34-.49,2.08-2.78,3.52-3.07,7.83-2.48,11.9.07.47.65,1,1.16,1.34.81.56.77.77-.07,1.29-3,1.84-3.22,3.62-.94,6.15.44.49.68.7,0,1.26-2.86,2.51-2.75,3.9.27,6.67-1.37.87-2.49,1.8-2.6,3.3s1.64,2.5,1.84,3.62-2.09,2-2.33,3.57,2.64,2.91,1.64,4a6.39,6.39,0,0,0-2,4.2c0,1.69-.06,3.38-.23,5.05a4.5,4.5,0,0,0,3.1,5.16c-4.5,2.53-4.57,4.88-.43,7.76-4.2,2.69-4.22,4.61,0,7.86-1.38.63-2.84,1.45-2.83,2.64,0,3.69-1.38,7.53,1.14,11.06.22.31.37.55.08.87-2.28,2.5-1.34,4.62,1.56,6.38-1.52,1-2.53,2-2.47,3.43.11,2.6-.35,5.37.53,7.69a10.55,10.55,0,0,1,.25,6.31,13.59,13.59,0,0,0,.45,7.38,12,12,0,0,1,.53,6.66,11.94,11.94,0,0,0,1.09,7.6,15.64,15.64,0,0,1,1.63,6.91,17.83,17.83,0,0,0,.31,2.06,16.07,16.07,0,0,0,.71,2.14,11.05,11.05,0,0,0,3,4c.65.59,1.4,1.09,2.05,1.61s1.38,1,2.06,1.36l1,.63,1,.57,1.95,1.15c2.51,1.48,5.2,1.38,7.54,1.82a3.49,3.49,0,0,0,3.69-1.48c.69-.93.9-.75,1.36.2,1.53,3.18,3.81,3.54,6.25.94.81-.86,1-.65,1.35.3a3.75,3.75,0,0,0,2.84,2.51c1.76.44,3.63-2.57,4.27-1.9,1.18,1.25,2,2.95,3.75,3.15,2.23.26,4.45,1.16,6.67.88a9.57,9.57,0,0,1,6.55,1,.55.55,0,0,0,.2,0c1.54.23,2.68-2,3.66-1.85s2,2.34,3.72,2.29c2.87-.1,6.18.12,9-1.35,1.16-.62,2.22-1.14,3.31-1.62l1.69-.67.9-.31,1-.4a11.65,11.65,0,0,0,6.92-7.62c.76-2.8,1.45-4.94,2.37-7.81a13.38,13.38,0,0,0,.48-2.61A11.14,11.14,0,0,0,492.39,1073.9Z" style="fill:#ea472c;"/><path d="M297.64,1072.47c-.18-.47-.39-.94-.62-1.38a9.46,9.46,0,0,0-1.74-2.4c-.66-.66-1.37-1.23-2-1.82s-1.33-1-2-1.53c-1.29-.92-2.54-1.74-3.82-2.54a12,12,0,0,0-7-1.9c-2.14.22-3.2-.74-3.11-1.71a4.17,4.17,0,0,0-.4-1.49,13.23,13.23,0,0,1-.69-2.38,3.6,3.6,0,0,0-.32-.93l-5.3.68h0l5.37-.68a3.19,3.19,0,0,0,0-.34c-.14-2.44,0-5-.84-7.24a9.08,9.08,0,0,1-.42-6.16c.57-1.93-.18-4-.1-6s-.64-3.72-3.38-4.84c3.17-1.94,4.33-4.14,2.44-5.74s-1.81-2.34,0-3.85.78-3.43-2.18-5.84c1.72-.85,3-1.9,3-3.55,0-2.5.61-5.05,0-7.48a10.76,10.76,0,0,1,.13-6,14.47,14.47,0,0,0,.1-7.7,9.21,9.21,0,0,1,.08-6c.73-1.93.08-4.14.23-6.22a4.69,4.69,0,0,0-3.29-5.21c4.33-2.84,4.15-5.39-.24-7.76,4.4-2.66,3.46-6.3-.61-7.82,1.21-.83,2.72-1.82,2.56-3.11-.15-1-.19-2-.29-3.07s-.21-2.06-.43-3.07a12.15,12.15,0,0,0-1-2.9,8.52,8.52,0,0,0-2.1-2.45c-.46-.33-.37-.63-.28-1.08a9.14,9.14,0,0,0,.19-2.2,3,3,0,0,0-.55-1.52,3.45,3.45,0,0,0-1.34-1,10.72,10.72,0,0,0-2.34-.68,9.22,9.22,0,0,0,.75-2.31,3.32,3.32,0,0,0-.49-2.24,40.18,40.18,0,0,0-5.69-6.87,3.47,3.47,0,0,0-1.36-.82,3.87,3.87,0,0,0-1.65,0c-.94.17-1.28.12-1.46-1a4.48,4.48,0,0,0-2.19-3.31,4.41,4.41,0,0,0-4,.46c-1.06.61-1.21.43-1.43-.63a3.86,3.86,0,0,0-1-2,4.75,4.75,0,0,0-1.75-1.08c-.93-.38-2.06.16-3,.72s-1.57,1.09-1.82.77a13.48,13.48,0,0,0-2-2.12,4.91,4.91,0,0,0-1.2-.74,4.61,4.61,0,0,0-1.51-.25c-1.34-.05-2.79-.08-4.22,0a11.69,11.69,0,0,0-2.14.34,10.2,10.2,0,0,0-1,.3,7.88,7.88,0,0,0-.95.51,44.88,44.88,0,0,1-7.37,3.5,2,2,0,0,0-1,1,4.72,4.72,0,0,0-.28,1.48c-.07,1-.06,1.83-.72,2.05a16.86,16.86,0,0,0-2.52.88,4.6,4.6,0,0,0-2,1.75,46.42,46.42,0,0,0-3.3,7.14,2.86,2.86,0,0,0,.05,2.56c.62,1,.12,1.34-.49,2.08-2.78,3.52-3.07,7.83-2.48,11.9.07.47.65,1,1.16,1.34.81.56.77.77-.07,1.29-3,1.84-3.22,3.62-.94,6.15.44.49.68.7,0,1.26-2.87,2.51-2.75,3.9.27,6.67-1.37.87-2.49,1.8-2.6,3.3s1.64,2.5,1.84,3.62-2.09,2-2.33,3.57,2.64,2.91,1.64,4a6.38,6.38,0,0,0-2,4.2c0,1.69-.06,3.38-.23,5.05a4.5,4.5,0,0,0,3.1,5.16c-4.5,2.53-4.57,4.88-.43,7.76-4.2,2.69-4.22,4.61,0,7.86-1.38.63-2.84,1.45-2.83,2.64,0,3.69-1.38,7.53,1.14,11.06.22.31.37.55.08.87-2.28,2.5-1.34,4.62,1.56,6.38-1.52,1-2.53,2-2.47,3.43.11,2.6-.35,5.37.52,7.69a10.55,10.55,0,0,1,.25,6.31,13.59,13.59,0,0,0,.45,7.38,12,12,0,0,1,.53,6.66,12,12,0,0,0,1.09,7.6,15.63,15.63,0,0,1,1.63,6.91,17.72,17.72,0,0,0,.31,2.06,16.07,16.07,0,0,0,.71,2.14,11,11,0,0,0,3,4c.65.59,1.4,1.09,2.05,1.61s1.38,1,2.06,1.36l1,.63,1,.57,1.95,1.15c2.51,1.48,5.2,1.38,7.54,1.82a3.49,3.49,0,0,0,3.69-1.48c.69-.93.9-.75,1.36.2,1.53,3.18,3.81,3.54,6.25.94.81-.86,1-.65,1.35.3a3.75,3.75,0,0,0,2.84,2.51c1.76.44,3.63-2.57,4.27-1.9,1.18,1.25,2,2.95,3.75,3.15,2.24.26,4.45,1.16,6.67.88a9.56,9.56,0,0,1,6.55,1c.06,0,.13,0,.2,0,1.54.23,2.68-2,3.66-1.85s2,2.34,3.72,2.29c2.87-.1,6.18.12,9-1.35,1.16-.62,2.22-1.14,3.31-1.62l1.69-.67.9-.31,1-.4a11.65,11.65,0,0,0,6.91-7.62c.76-2.8,1.45-4.94,2.37-7.81a13.38,13.38,0,0,0,.48-2.61,11.16,11.16,0,0,0-.2-2.85C297.89,1073.42,297.77,1072.94,297.64,1072.47Z" style="fill:#ea472c;"/><path d="M499,858.94a33.43,33.43,0,0,0,1.78-11.16c-.06-4.38-.19-8.77-.17-13.14,0-5.55-.72-10.32-3.63-13,4.2-7.09,3.93-13.14-.61-20.22,1.88-3.71,2.67-7.12,1.86-10.77a13.94,13.94,0,0,0-2.59-5.44,14.52,14.52,0,0,0-5.75-4.49,9.16,9.16,0,0,0-1.35-3.75,9,9,0,0,0-3.67-3.24,73.07,73.07,0,0,0-7.41-3c-2.34-.79-4.67-1.53-7-2.23s-4.7-1.3-7.07-1.76a33.86,33.86,0,0,0-3.57-.52c-1.21-.07-2.41-.1-3.62-.06a3.49,3.49,0,0,1-2.25-.45,20.2,20.2,0,0,0-8.5-3.21,14.88,14.88,0,0,0-2.09-.12,18.72,18.72,0,0,0-2.07.2,20.76,20.76,0,0,0-4,1.06,14.77,14.77,0,0,0-8.12-4.08l-2.52-.46-2.54-.4-5.09-.81a67.49,67.49,0,0,0-10-.94,74.21,74.21,0,0,1-16.61-1.6,93.23,93.23,0,0,0-9.54-1.08,69,69,0,0,0-9.58,0,74.56,74.56,0,0,1-17-.62,81.87,81.87,0,0,0-9.54-.72,64,64,0,0,0-9.52.46,77.16,77.16,0,0,1-17.06,0,89.32,89.32,0,0,0-18.53.14,76.08,76.08,0,0,1-17.5.2c-5.78-.56-12,.06-18,0-3.57,0-6.66.55-8.75,2.09-1.39,1-2,.88-3.57,0a16.58,16.58,0,0,0-16.43-.09c-1.75.94-2.31.75-3.59-.17-2-1.45-4.85-2-8.23-2.22-4.66-.22-8.35,2.79-10.25,2.16-3.49-1.21-6.13-2.88-10.75-3-6-.23-12.41-.87-18.44.44-3.08.68-6.06,1.46-9,2.41a68.83,68.83,0,0,0-9.14,3.57,3.35,3.35,0,0,0-.52.34,10.45,10.45,0,0,0-3.58,4.7,22.34,22.34,0,0,1-1.82,4.16,13,13,0,0,1-1.52,1.81l-1.7,1.76a17.1,17.1,0,0,0-1.63,2.12,10.86,10.86,0,0,0-1.23,2.81c-2,7.27-3,14.57-2.54,21.26a72.42,72.42,0,0,1-.17,15.62,84.8,84.8,0,0,0,.19,20.1,77.53,77.53,0,0,1,.54,16.09,80.63,80.63,0,0,0,1,19.56,78.62,78.62,0,0,1,1.18,17.07,76.66,76.66,0,0,0,1.68,18,89.74,89.74,0,0,1,2,18.45c.15,5.73,1.3,11.7,2.18,17.53a26.82,26.82,0,0,0,.58,2.81l5.29-.76h0l-5.36.77c0,.31,0,.61.08.92a91.52,91.52,0,0,0,1.74,10.35,37,37,0,0,0,1.73,5.28,26.88,26.88,0,0,0,2.74,5,38,38,0,0,0,6.85,7.28,65.53,65.53,0,0,0,7.89,5.45,32.35,32.35,0,0,0,8,3.23c1.39.38,2.78.71,4.15,1s2.79.6,4.15.94a26.65,26.65,0,0,0,4,.73,22.45,22.45,0,0,0,3.67.16,12,12,0,0,0,6.08-1.89c4.62,3.73,10.73,5.38,15.12,3.6a14.11,14.11,0,0,1,5.22-1.24,13.68,13.68,0,0,1,5.14,1.37c4,1.78,9.31.56,15.37-2.78a14.6,14.6,0,0,0,9.73,2.26c6.6-.58,13.44-.82,19.65-2.29,1.35-.33,2.66-.61,3.94-.86l4.12-.77a47.29,47.29,0,0,0,8.89-2.66,23.35,23.35,0,0,0,9.72-7.76,27.55,27.55,0,0,0,4.67-10.88c.6-3,.93-5.74,1.3-8.41s.75-5.28,1.29-8.1c1-5.21.33-11,.41-16.36.09-5.69-.57-10.36-3.23-13.43a22.08,22.08,0,0,0,3.85-9.56c.37-3-.25-6-1.36-9.59a32.13,32.13,0,0,0,9.11-9.88,31.13,31.13,0,0,0,2-3.77l1.5.44a15.7,15.7,0,0,0,1.55.46,8,8,0,0,0,3.4.16,31.8,31.8,0,0,1,12.32.29,24,24,0,0,1,9.34,4.67,2.62,2.62,0,0,1,1,1.92,41.67,41.67,0,0,0,1.41,7.2,28,28,0,0,0,3.74,6.52c-1,2.56-2,5.05-1.75,8.85.44,6.53.57,13.24,1,20.09A13.78,13.78,0,0,0,364,937.4a4.27,4.27,0,0,1,.63,4.13,17.08,17.08,0,0,0,0,8.72,14.05,14.05,0,0,0,4.54,7c1.62,1.32,1.75,1.87,1.63,3.59-.19,2.62,1.19,5.92,4.06,9a12.68,12.68,0,0,0,6.82,3.44c2.15.42,3.8.35,4.45.92a25.49,25.49,0,0,0,5.16,3.46c.48.23,1,.45,1.48.66s1,.34,1.6.49a18.19,18.19,0,0,0,3.5.59c6.1.51,12.45,1.34,18,.58a67.13,67.13,0,0,1,16.42-.2c4.28.42,6.83-3,9.61-2.36,3.44.81,6.38,1.82,10.44,1.61l4.36-.2c.69,0,1.54-.09,2.35-.16l2.45-.2c.41,0,.82-.06,1.23-.12l1.23-.22,2.47-.46a17.25,17.25,0,0,0,2.46-.63l2.44-.75a18.92,18.92,0,0,0,3.23-1.54,8.11,8.11,0,0,0,1.35-.93,8.56,8.56,0,0,0,1-1.12,7.58,7.58,0,0,1,2.12-1.94c.73-.53,1.59-1,2.66-1.57a29,29,0,0,0,11-13.06,46.33,46.33,0,0,0,3.67-16,6.66,6.66,0,0,0-.85-3.32c-.68-1.34-.59-1.89.32-3.38a17.17,17.17,0,0,0,2.75-7.63,20,20,0,0,0-1.25-8.3,3.39,3.39,0,0,1,.07-3.24c3.06-6.77,3-10.32.16-17.27a17.56,17.56,0,0,0,2.73-8.91c.15-4-1.59-6.44-1.8-9.34s2.08-5.46,2.27-9.6C501,864.72,498,861.94,499,858.94Z" style="fill:#4e73b9;"/><path d="M656.52,565.13a20.87,20.87,0,0,0-5.63-12.79,14.64,14.64,0,0,0-6.78-3.89,17.25,17.25,0,0,0-6.79-.4c-2,.28-3.73.54-5.46.71a36.71,36.71,0,0,1-5.18.18,26.3,26.3,0,0,0-10.92,1.84,25.43,25.43,0,0,1-9.71,1.83,30.36,30.36,0,0,0-10.51,2,25.18,25.18,0,0,1-9.89,1.92c-3.38,0-6.79,1.2-10.19,1.77a6,6,0,0,0-4.6,2.88c-.62,1.14-1,1-2,.33-3.43-2.37-6.74-1.89-9.31,1.44-.85,1.11-1.2,1-2,.18a6.23,6.23,0,0,0-4.93-1.45c-2.64.13-4.37,3.55-5.52,3.09-2.11-.84-3.77-2.34-6.35-2.08-1.64.18-3.32.07-5,.1-.83,0-1.65,0-2.46.09a17.86,17.86,0,0,0-2.39.28c-3.22.65-6.27.94-9.27-.29a1,1,0,0,0-.27,0c-2-.2-3.51,2-4.89,1.77-1.58-.3-2.51-2.54-4.61-2.83-3.59-.51-7-1.94-10.34-2.42a13.67,13.67,0,0,1-7.42-3.32,40.2,40.2,0,0,0-9.14-5.8,20.23,20.23,0,0,1-7.18-5.41,30.07,30.07,0,0,0-8.67-7,22.8,22.8,0,0,1-7.46-6.26,28.5,28.5,0,0,0-7.83-6.68,25.53,25.53,0,0,1-7.87-7c-2-2.58-4.84-4.62-7.33-6.87a8.91,8.91,0,0,0-.81-.48l-3.64,3.9h0l3.64-3.9a6.82,6.82,0,0,0-.75-.91c-2.48-2.54-4.82-5.73-7.9-7.87a29,29,0,0,1-7.18-6.84c-1.9-2.55-5.06-4.3-8-6.24s-6.5-2.73-9.15-.54a5.84,5.84,0,0,0-1-1.35,10.17,10.17,0,0,0-1.25-1.11,6.15,6.15,0,0,0-1.36-.81,9.13,9.13,0,0,0-1.41-.5,5.78,5.78,0,0,0-2.74-.06,4.35,4.35,0,0,0-2.26,1.17,8.13,8.13,0,0,1-3,2.08,7.18,7.18,0,0,1-3.56-.25c-3.05-.73-6.07,1.86-7.49,6.52a8,8,0,0,0-3.28-.23,6.64,6.64,0,0,0-3.27,1.7,45,45,0,0,0-4.58,4.81c-.35.44-.69.89-1,1.34s-.6,1-.88,1.45a15.32,15.32,0,0,0-.77,1.5c-.21.53-.41,1.06-.58,1.6-.32.91-.53,1.86-.79,2.75s-.45,1.73-.67,2.55l-.35,1.23c-.1.41-.2.83-.32,1.25-.24.84-.5,1.69-.72,2.59a21.66,21.66,0,0,0,.56,13.09,44.56,44.56,0,0,1,2.71,9.51c.49,3.24,2.62,6.23,4.17,9.2,1.66,3.18,3.93,5.31,7.21,5.14-1,6,1.7,9.12,7.49,9.14a7.43,7.43,0,0,0,2,6.72,7.13,7.13,0,0,0,6.16,1.75c-.2,1.64-.56,3.56.66,4.83,3.88,4,6.54,9,12,11.42.66.28.75.67.93,1.23,1.38,4.32,2.73,5.43,7.34,5.95.05,1.95.18,3.92,1.87,5.57a104.19,104.19,0,0,0,9.22,8.13,5.64,5.64,0,0,0,4,1.22c1.13-.12,1.59,0,2.14,1.25a8,8,0,0,0,3.54,3.9,7,7,0,0,0,5.08,0c1.32-.44,1.57-.18,2,.94a6.2,6.2,0,0,0,8.19,3.48c1.23-.37,2.19-.84,2.56-.49,1.82,1.73,3.38,3.58,6.3,3.91.89.12,1.79.29,2.69.47s1.8.29,2.7.42a15.74,15.74,0,0,0,5.24.09,24.8,24.8,0,0,1,9.78.33c2.56.47,4-2.85,5.67-2.19,2,.8,3.87,1.89,6.28,1.59q5.2-.57,10.35-1.25a5.14,5.14,0,0,0,3.17-1.34c.93-1,1.68-.74,3-.57,6,.85,11.75-.72,17.24-2.89a3.46,3.46,0,0,0,1.46-1.64c.51-1,.83-1,1.85-.44,3.64,2.12,6.16,1.65,9.08-1.49.57-.61.8-.91,1.8-.51,4.48,1.75,6.45,1.16,9.59-2.83a7.39,7.39,0,0,0,5.62,1.18c2.25-.51,3.17-2.6,4.74-3.25s3.56,1.14,5.91.69c2.51-.47,3.32-3.73,5.23-3.26a12.36,12.36,0,0,0,6.7.1c2.43-.71,4.87-1.41,7.33-2,3.12-.76,5.63-2.07,6.39-5.24,5.09,3.11,8.46,2.12,11.26-3.13,5.19,2.74,7.93,1.88,11.25-3.61,1.33,1,3,2,4.66,1.45,2.63-.88,5.41-1.46,8.07-2.3a18.41,18.41,0,0,0,7.31-4.06c.37-.36.68-.63,1.24-.51,4.29.94,7.6-1.44,8.76-5.51a6.16,6.16,0,0,0,6.23-1.49c.44-.41.9-.88,1.36-1.37s.87-1,1.29-1.51a21.07,21.07,0,0,0,2.14-3.33A14.16,14.16,0,0,0,656.52,565.13Z" style="fill:#ea472c;"/><path d="M509.74,639.13a98.08,98.08,0,0,1-.17-18,122.19,122.19,0,0,0-.45-23,80.42,80.42,0,0,1-.43-17.77c.52-5.77-.3-12.25-.38-18.4,0-1.63-.08-3.2-.21-4.68a33.17,33.17,0,0,0-.7-4.28,18.75,18.75,0,0,0-1.23-3.66,12.17,12.17,0,0,0-2-2.9,22.86,22.86,0,0,0,1.89-12.19,21.57,21.57,0,0,0-5.18-10.83,18.58,18.58,0,0,0,.87-3.11,20.76,20.76,0,0,0,.26-3.25,21.7,21.7,0,0,0-.91-6.48,22.61,22.61,0,0,0-2.54-5.7,16.26,16.26,0,0,0-3.7-4.08c.65-2.39,1.3-5,.12-8.46l-3-8.1c-1.1-2.67-2.12-5.38-3.36-8q-.94-1.95-1.94-3.85c-.34-.63-.67-1.26-1-1.88s-.75-1.21-1.14-1.81a41,41,0,0,0-5.21-6.68,6,6,0,0,1-1.5-2.74c-3-8.09-5.18-10.81-11.92-14.59-.21-.77-.41-1.57-.68-2.35a24.26,24.26,0,0,0-1-2.37,17.79,17.79,0,0,0-3.55-4.94,117.28,117.28,0,0,0-18.84-15.16,18.77,18.77,0,0,0-3.7-1.9,12.61,12.61,0,0,0-3.47-.88A5.54,5.54,0,0,1,430.5,415c-4.85-5.16-10.61-7.5-16.81-6.95-2.19.18-2.78-.12-3.92-1.51a11.9,11.9,0,0,0-3.55-2.81c-.73-.41-1.53-.8-2.38-1.17s-1.77-.67-2.72-1a18.89,18.89,0,0,0-7.51-.61c-2.2.2-3.9.51-4.68,0-3.85-2.22-7.1-4.27-12.67-5.12-6.8-1-14-2.54-20.43-2.25a111.75,111.75,0,0,1-19-.82,12.32,12.32,0,0,0-6.28,1.14c-1.79.7-3.33,1.38-4.94,1.08-2-.39-3.86-.84-5.81-1.09a25.44,25.44,0,0,0-6.4-.15c-6.83.68-13.65,1.56-20.43,2.7a17.11,17.11,0,0,0-6.35,2c-1.93,1.27-3.37,1.16-5.84,1.34-11.64.73-23.1,4.62-33.66,9.9a8.26,8.26,0,0,0-2.78,2.55c-1,1.33-1.56,1.54-3.5,1.55-6.91,0-11.79,2.25-16.8,7.88a4.69,4.69,0,0,1-3.21,2,31.81,31.81,0,0,0-5.44,1.62,18.25,18.25,0,0,0-7.61,5.62,32,32,0,0,0-3.2,4.74,21,21,0,0,0-4.65,1.65,20.43,20.43,0,0,0-5,3.49,18.65,18.65,0,0,0-3.63,4.89,31,31,0,0,1-2.54,4.48c-1.91,2.65-5.74,3.73-8.71,7.79a14.07,14.07,0,0,0-1,1.61,14.51,14.51,0,0,0-.7,1.63c-.39,1.08-.66,2.11-.91,3.09a10.31,10.31,0,0,1-2.07,5.07,47.11,47.11,0,0,0-4,5.1,38.82,38.82,0,0,0-3.16,6c-1.92,4.8-3.69,9.65-5.31,14.52-2.14,6.16-2.9,11.79-1,15.6-6.16,6.79-7.53,13.9-4.7,22.85-5.36,7.56-6.1,13.31-3,23.34a12.65,12.65,0,0,0-3.61,7.56c-1,10.95-3.41,22.08-1.77,32.85a4.46,4.46,0,0,1-.14,2.6,23.74,23.74,0,0,0,.09,19.14,18.3,18.3,0,0,0-3.18,9.72c-.43,7.7-1.42,15.68-1,23a100,100,0,0,1-.69,19,112.8,112.8,0,0,0-.43,21.84,102.21,102.21,0,0,1-.17,19.43,82.71,82.71,0,0,0,.8,22.07,199.31,199.31,0,0,1,2.36,19.88,65.51,65.51,0,0,0,5.47,21.42l2.31,4.89c.82,1.57,1.49,3.17,2.31,4.72l1.17,2.35c.38.79.83,1.56,1.23,2.35.79,1.6,1.71,3.17,2.63,4.82,3.55,6.34,9.7,11.73,16,16a23.06,23.06,0,0,0,5.65,2.73,17.12,17.12,0,0,0,2.61.58,9,9,0,0,0,2.37-.06c2-.33,2.54.14,4.09,1.5a20.57,20.57,0,0,0,18.7,4.64c2.17-.52,2.77-.21,4.08.92a13.24,13.24,0,0,0,3.9,2.24,26.78,26.78,0,0,0,5.28,1.44,19.05,19.05,0,0,0,7.3-.34c2.09-.48,3.76-1,4.82-.53,3.94,1.58,7,3.39,12.37,3.83,3.4.22,6.85.58,10.28.84a82.38,82.38,0,0,0,10.08.18c6.71-.41,12.89-.62,19.3.42a4.42,4.42,0,0,0,.58,0c4.34.07,7-2.29,9.83-2.23,3.27.09,5.86,2.16,10.43,2,7.71-.25,15.66.1,23-.81a77.12,77.12,0,0,1,17.68-.39,122.8,122.8,0,0,0,22.88-.11,105.93,105.93,0,0,1,18.46-.34A93.11,93.11,0,0,0,414,825.83a152.84,152.84,0,0,1,19.77-2.25,70.21,70.21,0,0,0,20.78-4.47c7.13-2.88,13.6-5,20.73-7.92,1.61-.64,3.17-1.5,4.76-2.32s3.1-1.86,4.59-2.92,2.93-2.11,4.45-3.46a45.15,45.15,0,0,0,4.11-4.15c.48-.55.8-1.18,1.2-1.73.6-.66,1.2-1.37,1.79-2.14A51.35,51.35,0,0,0,505.74,772c.49-3.52.84-6.77,1.19-10s.65-6.58,1.12-9.78c.86-5.77.46-12.25.76-18.39s-.22-11.45-2.86-15c3.3-5.61,4.66-12.33,2.84-17.23-1.74-4.7-1.69-7.07.18-11.66s.88-10.41-2.07-17.54a18.57,18.57,0,0,0,3-10.82C509.95,654.09,510.45,646.34,509.74,639.13Z" style="fill:#382d15;"/><path d="M415.63,307.86a32.68,32.68,0,0,1-1.92-8.86c-.21-2.87-1.94-5.57-3.21-8.25s-3.33-4.59-6.47-4.23c1.06-4-.62-7.54-3.7-7.69a4,4,0,0,1-4.64-3.44c-1-2.7-4.57-3.38-8.65-1.44a5.46,5.46,0,0,0-4.62-4c-1-.1-1.92-.23-2.88-.28l-1.44-.09h-1.34a17.09,17.09,0,0,0-5.19.68,31,31,0,0,1-8.31,1.49,19.38,19.38,0,0,0-10.21,3.65,28.23,28.23,0,0,1-7.41,4.25c-2.71,1-4.85,3.6-6.94,5.73a11.4,11.4,0,0,0-1.52,1.73,8.23,8.23,0,0,0-.9,1.92,5.23,5.23,0,0,0-.24,2,6.14,6.14,0,0,0,.64,2.11,9.22,9.22,0,0,0-3.55,1.08,5.31,5.31,0,0,0-2,2,4.72,4.72,0,0,0-.39,2.79,8.39,8.39,0,0,0,1.25,3.34,7.41,7.41,0,0,0-3.22,1.74,5.65,5.65,0,0,0-1.48,2.66,5.15,5.15,0,0,0,.21,2.93,6.41,6.41,0,0,0,1.79,2.64c-1.42.64-3.19,1.38-3.45,3-.8,5-2.52,10.2,0,15,.31.57.12.87-.12,1.35-.93,1.83-1.28,3.12-1,4.31s1.11,2.28,2.69,3.71c-1.24,1.32-2.41,2.65-2.27,4.59.25,3.31.48,6.6.67,9.84a4.21,4.21,0,0,0,1.52,3c.75.64,1,1,.23,1.94-2.21,2.84-2,5.13.74,7.43,1,.82.84,1.1-.09,1.72a5,5,0,0,0-2.19,3.83c-.3,2.12,2.77,4.31,2.13,5s-1.49,1.47-2.11,2.22a4.91,4.91,0,0,0-1.23,2.62c-.47,2.61-1.77,5.06-1.91,7.54a8.85,8.85,0,0,1-.25,1.9,10.55,10.55,0,0,1-.65,1.67,10.29,10.29,0,0,1-2.15,2.86c-.72.67-.53,1.67-.32,2.63s.36,1.83-.31,2.16c-.83.41-1.68.71-2.46,1.11a5.53,5.53,0,0,0-2,1.69c-1.58,2.26-3.36,4.49-5.17,6.77a3.85,3.85,0,0,0-1.06,2.76c.13,1.27-.54,1.49-1.48,2.13-4.41,2.92-7.26,7.83-8.47,13.35a3,3,0,0,0,.56,2c.58.92.48,1.17-.54,1.68a5.91,5.91,0,0,0-3.3,3.5,6.34,6.34,0,0,0,1,4.8c.41.7.61,1-.06,1.76a11.25,11.25,0,0,0-1.57,2.51,4.51,4.51,0,0,0-.07,3.34,6.25,6.25,0,0,0,.61,1.08,10.86,10.86,0,0,0,2.11,2.24,8.76,8.76,0,0,0-1.3,2.39,5.41,5.41,0,0,0-.06,2.88c.59,2.16,2.7,2.84,3.52,4.14a4,4,0,0,1,.06,2.48,5.45,5.45,0,0,0,.19,3.15,4.49,4.49,0,0,0,2.58,2.07c1,.43,1.79.79,1.85,1.72a12.62,12.62,0,0,0,.64,3.16,9.15,9.15,0,0,0,1.69,2.74c1.69,1.78,3.45,3.43,5.26,5,2.26,2.07,4.9,3,7.59,1.38.77,5.64,4.31,7.35,9.28,4.7,2.08,5.14,5.2,6,10.17,2.61.6,1.47,1.54,3.15,3.2,3.28,2.55.28,5.15.69,7.76.72a12.75,12.75,0,0,0,7.45-2.06c.39-.27.7-.46,1.18-.23,3.71,1.72,6.64,0,8.12-3.41a7.14,7.14,0,0,0,2.5,1.12,4.27,4.27,0,0,0,2.68-.28c3.34-1.38,7.06-2.67,9.56-5.25a35.56,35.56,0,0,1,7.09-5.68,18,18,0,0,0,6.65-8.2,47.31,47.31,0,0,1,4.22-8.46,16.31,16.31,0,0,0,2.42-10.31c-.06-.85-.19-1.67-.21-2.46s0-1.56,0-2.33.06-1.54.1-2.33.07-1.59.14-2.43A17.51,17.51,0,0,0,399,431.3a87.08,87.08,0,0,1-5-8.76,15.37,15.37,0,0,0-3.09-4c-1.2-1.14-2.48-2.19-3.64-3.23a4.76,4.76,0,0,0-4.69-1.36c-1.19.33-1.32,0-1.34-1.13a5.55,5.55,0,0,0-1.5-4.21,5.38,5.38,0,0,0-4.23-1c-1.25.1-1.33-.23-1-1.26a5,5,0,0,0,.13-2.18,4.13,4.13,0,0,0-.28-.95,6.51,6.51,0,0,0-.42-.94c-.44-.85-1.64-1.1-2.58-1.43s-1.87-.56-1.82-1.07a23.54,23.54,0,0,1,.66-2.72,5.1,5.1,0,0,0,.15-1.28,3.5,3.5,0,0,0-.18-1.34c-.88-2.32-.73-5-1.65-7.35s-1.27-5-.11-7.46a.69.69,0,0,0,0-.23c.1-1.68-2.1-2.93-1.91-4.1.22-1.34,2.49-2.14,2.64-4,.37-3.13,1.51-6.22,1.48-9.37a14.79,14.79,0,0,1,1.67-7.3,36.51,36.51,0,0,0,2.68-7.19,2.11,2.11,0,0,1,2.9-1.74,30.91,30.91,0,0,0,3.44.67,19.88,19.88,0,0,0,4.89.1c.86-.1,1.73-.17,2.61-.23s1.78-.17,2.65-.21,1.74-.2,2.64-.27,1.78-.28,2.73-.42a14.69,14.69,0,0,0,9.31-6c2.15-3.28,4.16-5.76,6.36-8.79,2-2.75,2.76-6.33,3.22-9.77a8.78,8.78,0,0,0-.05-1,7.09,7.09,0,0,0,.26-1.18C416.4,315.06,416.75,311.21,415.63,307.86Z" style="fill:#ea472c;"/><path d="M424.57,269c4.42-2.15,4.23-5-.4-6.47a6.1,6.1,0,0,0,2.09-2.18,2.55,2.55,0,0,0,.15-2.07,2.72,2.72,0,0,0-1.41-1.51,6,6,0,0,0-2.69-.53c1-1,2.21-2.33,1.68-3.32-.41-.78-.67-1.64-1.09-2.43a26.21,26.21,0,0,0-1.31-2.38,9.3,9.3,0,0,0-1.92-1.91,5.3,5.3,0,0,0-2.64-.93c-.49,0-.5-.33-.58-.73-.33-1.5-.82-2.38-1.6-2.74s-1.94-.09-3.57.62c0-1.55-.15-3.05-1.36-3.72-1.05-.51-2.11-1-3.17-1.45s-2.14-.87-3.23-1.17a2.47,2.47,0,0,0-2.42.68c-.63.58-.91.7-1.31-.18-.62-1.36-1.39-2.08-2.25-2.13s-1.79.49-2.74,1.73c-.67.87-.83.74-1.12-.23a3,3,0,0,0-2.41-2.34c-1.53-.32-3,2.89-3.41,2.31-1.07-1.37-2-2.74-3.53-2.68-1.86.09-3.84-.55-5.52.29a6,6,0,0,1-5,.19c-1.37-.46-1.9,2.92-2.8,2.23-1.13-.84-2.16-1.88-3.43-1.68l-5.48.86a1.92,1.92,0,0,0-1.6,1.18c-.4,1-.84.64-1.56.42-3.41-1.12-6.58.18-9.28,2.23a2.47,2.47,0,0,0-.48,1.55c-.06.94-.23,1-1,.41-1.29-1-2.31-1.36-3.11-1.11s-1.34,1.18-1.71,2.69c-.14.58-.17.88-.88.56-3.18-1.43-4.3-.57-4.49,3.24-1.35-.68-2.68-1.13-3.78-.38s-.65,2.67-1.19,3.47-2.61-.34-3.76.48c-.62.42-.55,1.36-.49,2.17s.1,1.49-.58,1.51a7.54,7.54,0,0,0-2.22.36,3.69,3.69,0,0,0-1.56,1.17l-1.34,1.72c-.45.57-.84,1.18-1.3,1.74a3.82,3.82,0,0,0-1,2.36,4.78,4.78,0,0,0,1.45,3c-2.43-.18-4,.2-4.49,1.16s-.06,2.41,1.35,4.3c-2.35.16-3.67.69-4.06,1.64a2.3,2.3,0,0,0,.14,1.77,11.36,11.36,0,0,0,1.63,2.51c-1.47,0-3.08.21-3.39,1.15-.41,1.47-1.19,2.86-1.65,4.34a6,6,0,0,0,.38,4.7c.16.29.27.51-.07.71-2.65,1.51-2.14,3.46.51,5.32-1.63.5-2.81,1.16-2.94,2.33-.21,2.09-1.06,4.24-.39,6.28a7.67,7.67,0,0,1-.24,5.16,8.68,8.68,0,0,0,.07,5.92,7.56,7.56,0,0,1,.23,5.3,7.84,7.84,0,0,0,.71,6.09,9.7,9.7,0,0,1,1.19,5.54,8.85,8.85,0,0,0,2.1,6,13.68,13.68,0,0,1,3,5.45c.67,2.1,2.57,3.52,4.13,5a2.94,2.94,0,0,0,3.69.47c1-.53,1-.28,1,.72-.22,3.44,2.25,4.77,5.06,2.68.92-.68,1-.46,1.17.52a3.39,3.39,0,0,0,.86,1.83,4,4,0,0,0,1.66.92,2.93,2.93,0,0,0,2.53-1.13c.7-.69,1.18-1.34,1.52-1.05,1.23,1,2.52,2.52,4.32,2.1,2.21-.52,4.67-.84,6.3-2.35s3-2.82,5.22-3.28c.06,0,.09-.08.14-.11,1.12-.85.1-3.13.76-3.62s2.83.27,3.72-.89c1.46-1.91,3.28-3.74,3.7-6a9.5,9.5,0,0,1,2.17-4.81,8.84,8.84,0,0,0,2-6.27,8,8,0,0,1,1.08-5,9.4,9.4,0,0,0,1.09-2.91,6.55,6.55,0,0,0,0-2.77,4.85,4.85,0,0,1,1.15-4.4,6.25,6.25,0,0,0,1.59-4.09,2.54,2.54,0,0,1,2.12-2.77,2.41,2.41,0,0,0,1-.32,9.13,9.13,0,0,0,4.12,0,6.93,6.93,0,0,1,5.13.18c1.59.66,3.37,0,5.08.1s3.2-.7,3.88-3.52a6.65,6.65,0,0,0,2.83,2.85,1.71,1.71,0,0,0,2.25-1c1-2,1.56-2.17,3.28-.68s3.29-.1,4.12-3.63c1.29,1.38,2.68,2.13,4.07,1.51,1-.47,2.11-1,3.17-1.49a9.22,9.22,0,0,0,2.69-2.18,10.2,10.2,0,0,1,1.88-2.08,12.58,12.58,0,0,1,2.33-1.69,9.87,9.87,0,0,0,2.73-2.53,10.52,10.52,0,0,0,1.51-3.36,10.75,10.75,0,0,1,.79-2.69,7.92,7.92,0,0,1,1.49-2.36,5.4,5.4,0,0,0,1.12-2.6c.24-.94.28-1.93.53-2.85a5.15,5.15,0,0,0,.2-1.44,3.7,3.7,0,0,0-.34-1.34A4.41,4.41,0,0,0,424.57,269Z" style="fill:#382d15;"/><path d="M741.76,439.27a9.05,9.05,0,0,0-.47-1.67,8,8,0,0,0-.66-1.52c-.25-.46-.52-.91-.81-1.35s-.6-.74-.92-1.08l-.48-.51-.5-.41a12.63,12.63,0,0,0-1-.73,26.6,26.6,0,0,1-6.34-4.28c-1.66-1.62-4.1-2-6.11-2.92a4.62,4.62,0,0,0-6,1.35c-.89-3.63-2.92-5.44-5-4s-2.77,1.17-3.9-1-3.38-1.54-6.32,1c-.55-1.85-1.41-3.31-3.09-3.6-2.54-.43-5.11-1.35-7.67-1a13.42,13.42,0,0,1-6.33-.63q-.52-.15-1.06-.27c-.32-.07-.63-.14-1-.19a14.68,14.68,0,0,0-1.93-.19,14.28,14.28,0,0,0-3.84.4,8.94,8.94,0,0,1-5.93-.22c-1.9-.76-4.09-.22-6.14-.43a4.67,4.67,0,0,0-5.29,3.06c-2.61-4.43-5.05-4.46-7.7-.21-2.32-4.58-5.91-3.93-7.76,0-.68-1.3-1.42-2.9-2.61-2.92-3.74-.07-7.63-1.48-11.2,1.1-.43.31-.66.13-1-.11-2.8-1.8-3.92-1.52-6.14,1.56-1-1.27-2-2.5-3.54-2.43-2.6.16-5.2.23-7.8.42a3.06,3.06,0,0,0-2.38,1.51c-.5.75-.78.95-1.55.24-2.36-2.14-4.33-1.79-5.93,1.07-.57,1-.8.93-1.39.07a3.76,3.76,0,0,0-3.41-1.73c-1.84,0-3,3.46-3.65,3-1.57-1.13-2.88-2.36-4.78-2-2.3.42-4.84.17-6.82,1.31A9.21,9.21,0,0,1,577,421c-1.73-.22-2,3.24-3.24,2.71-1.48-.66-2.8-1.54-4.32-1.17-2.18.54-4.35,1-6.51,1.42a2.47,2.47,0,0,0-1.92,1.25c-.51,1-1,.69-1.87.46a13.38,13.38,0,0,0-5.66-.3,20.35,20.35,0,0,0-2.69.63,28,28,0,0,0-3.08,1.12,2.53,2.53,0,0,0-1,1.55c-.3,1-.51,1-1.32.38-2.89-2.13-4.95-1.53-6.35,1.68-.27.63-.36.92-1.18.63-3.69-1.3-5.27-.27-6,3.93-1.58-.56-3.16-.76-4.63.39a3.63,3.63,0,0,0-1.15,2.3,8.19,8.19,0,0,1-.51,2.26c-.32.58-1.09.84-2,1.26a8.07,8.07,0,0,0-1.35.86,4.61,4.61,0,0,0-1.06,1.51,3.9,3.9,0,0,0-.12,2.07,7.36,7.36,0,0,0,.73,1.79,12.4,12.4,0,0,1,.83,1.4,2,2,0,0,1,.21,1.33,7.07,7.07,0,0,0,1.78,6.41,35.68,35.68,0,0,0,5.08,4,8.09,8.09,0,0,0,1.59.82,5.67,5.67,0,0,0,.8.24,4.06,4.06,0,0,0,.76,0,5,5,0,0,0,3.19-1.52c.28,2.56,1,4.19,2.2,4.71s2.86.09,4.95-1.32c.53,2.5,1.36,3.81,2.55,4.25s2.8-.08,5-1.64c.2,1.5.6,3.14,1.79,3.48,1.83.57,3.63,1.32,5.48,1.85a8.51,8.51,0,0,0,5.81-.19c.35-.15.63-.24.89.12,2,2.75,4.39,2.23,6.65-.28.68,1.66,1.54,2.83,3,3,2.63.37,5.3,1.19,7.86.69a11.4,11.4,0,0,1,6.44.48,13.53,13.53,0,0,0,7.38.28,10.91,10.91,0,0,1,6.52.22,12.05,12.05,0,0,0,7.3.13,10.88,10.88,0,0,1,6.51.09,13.54,13.54,0,0,0,7.08.14,12,12,0,0,1,6.77.07c2.24.64,4.65.1,7,.09a3.49,3.49,0,0,0,3.37-2.09c.52-1,.76-.9,1.38,0,2.09,2.84,4.46,2.8,6.37-.25.63-1,.85-.84,1.4,0a3.78,3.78,0,0,0,3.33,1.88c1.85,0,3-3.31,3.8-2.79,1.44,1,2.64,2.43,4.44,2.2,2.27-.28,4.7,0,6.82-.84a14.06,14.06,0,0,1,3.2-1,6.91,6.91,0,0,1,3.29.22c.06,0,.13,0,.19,0,1.47-.15,2-2.57,3-2.63s2.3,1.88,3.84,1.57c2.58-.5,5.36-.51,7.7-1.66a10.45,10.45,0,0,1,6-1.33,13.82,13.82,0,0,0,7.6-2,11.73,11.73,0,0,1,6-1.84,12.84,12.84,0,0,0,7.25-2.44,11.79,11.79,0,0,1,6.27-2.29,12.08,12.08,0,0,0,6.85-3.14,34.71,34.71,0,0,1,6.88-4.83,10.78,10.78,0,0,0,3.14-3.06,15.58,15.58,0,0,0,2.26-4.83,6.44,6.44,0,0,0,.21-2h.07c0-.22.08-.42.09-.65,0-.59.07-1.19.06-1.78S741.86,439.86,741.76,439.27Z" style="fill:#4e73b9;"/><path d="M743.44,456c-.09-1.81,0-3.66,0-5.69a27,27,0,0,0-.68-7,13.51,13.51,0,0,0-4.73-7.11,15.06,15.06,0,0,0-6.85-3c-2.18-.36-4.05-.65-5.88-1s-3.63-.77-5.36-1.15a38.9,38.9,0,0,0-5.67-.91c-1-.08-1.93-.12-2.89-.12a22.24,22.24,0,0,0-2.81.29,29,29,0,0,1-5.38.4c-.88,0-1.75-.09-2.64-.17s-1.78-.16-2.71-.29c-3.55-.5-7.37.06-11,.35-2.18.13-4,.8-5.17,2.42-.76,1.08-1.14.94-2.16.18-3.4-2.56-7.08-2.2-9.88,1.06-.92,1.1-1.28,1-2.16.18a6.75,6.75,0,0,0-5.23-1.39c-2.85.19-4.54,3.74-5.75,3.34-2.25-.74-4.12-2-6.86-1.59-3.46.6-7.13.61-10.36,1.72s-6.42,1.92-9.84,1.38a1.17,1.17,0,0,0-.3,0c-2.21.25-3.24,2.76-4.72,2.85-1.69.11-3.29-1.79-5.61-1.42-3.92.55-8,.54-11.73,1.59a22,22,0,0,1-9.09.84,30.25,30.25,0,0,0-5.86-.17c-1,.07-2,.18-2.95.33s-1.93.27-2.86.47a25.64,25.64,0,0,1-4.66.58c-.76,0-1.52,0-2.29,0s-1.55-.22-2.36-.39a36.78,36.78,0,0,0-11.27-.53,21,21,0,0,1-5,.07,26.55,26.55,0,0,1-4.89-1.09,23.38,23.38,0,0,0-11.63-.62c-2.22.52-4.23.91-6.44,1.45a44.6,44.6,0,0,0-6.53,2.1,15.91,15.91,0,0,0-5.55,4,18.69,18.69,0,0,0-3.14,4.91l-2.27.23c0,.18,0,.36,0,.55.3,3.91.24,8,1.34,11.66a24.61,24.61,0,0,1,1.12,9.85c-.28,3.09.73,6.37,1,9.57s1.29,5.87,4.26,7.3c-2.75,3.37-3.44,7-1.2,9.29s2.32,3.37.89,6,.07,5.51,3.63,8.69a6.91,6.91,0,0,0-2,6.06c.66,3.87.82,7.95,2.14,11.54a26.5,26.5,0,0,1,1.68,9.26,34.19,34.19,0,0,0,2.31,11.78,22,22,0,0,1,1.81,9.11c-.1,3.09,1.24,6.28,1.74,9.46.55,3.39,1.85,6.17,5,7.3-3.19,5.21-1.93,9.35,3.55,11.73a8.5,8.5,0,0,0-1.07,3.9,7.57,7.57,0,0,0,.89,3.55,7.3,7.3,0,0,0,5.81,3.77c-.45,1.62-1.08,3.65.24,5.29a40.33,40.33,0,0,0,6.87,7.4,15.56,15.56,0,0,0,9.2,3.65,2,2,0,0,1,1.58.79c1.89,1.69,3.43,2.56,5,2.75s3.17-.29,5.29-1.43c1.29,1.54,2.74,3.06,5.19,3.31,4.21.44,8.3.65,12.28.87a5.53,5.53,0,0,0,3.71-1.09c.86-.64,1.33-.78,2.31.1,3,2.67,5.83,2.94,9.09.7,1.15-.8,1.47-.63,2.12.39a6.58,6.58,0,0,0,4.75,2.73c2.93.52,5.71-2.54,6.57-2a22,22,0,0,0,3.29,1.92,10,10,0,0,0,1.82.58,7.77,7.77,0,0,0,2,.16c3.48-.13,7.21.53,10.5-.29a22.59,22.59,0,0,1,9.85-.16c2.62.45,4.06-3,5.77-2.31,2.13.8,4,1.81,6.51,1.49,3.6-.44,7.22-.94,10.84-1.6a5.52,5.52,0,0,0,3.31-1.55c.93-1.12,1.73-.9,3.11-.86,6.44.18,12.94-2.65,18-7.39a3.7,3.7,0,0,0,.87-2.26c.11-1.14.36-1.37,1.65-1.43a6.87,6.87,0,0,0,6.57-4.47,12.44,12.44,0,0,0,.52-3.07c0-.9,0-1.26,1.07-1.77,2.24-1.16,3.77-2.31,4.39-3.85s.73-3.39.1-6a10.83,10.83,0,0,0,2.55-1.57,7.21,7.21,0,0,0,1.82-2.69,5.66,5.66,0,0,0,.22-3.27,8.69,8.69,0,0,1-.24-2.83c.27-1.69,2.87-2.65,3.71-5.08.85-2.6-1.58-4.95-.27-6.5a12.89,12.89,0,0,0,3.22-6.25c.48-2.62.91-5.26,1.44-7.85.69-3.3.52-6.25-2-8.32,2.49-1.75,3.84-3.53,4.14-5.48s-.49-4-2.28-6.47c4.68-3.7,5.06-6.58,1.56-12.09,1.5-.79,3.11-1.87,3.34-3.68.72-5.66,2.93-11.28,1.23-17.07a1.28,1.28,0,0,1,.12-1.35c2.81-3.43,2.39-6.79-.06-10a6.62,6.62,0,0,0,3.26-4.75c.53-4,1.69-8,1.44-11.88A25.58,25.58,0,0,1,742,467.3,32.89,32.89,0,0,0,743.44,456Z" style="fill:#4e73b9;"/><path d="M722.2,442.14c-.81-1.19-1.45-2.2-2.06-3.23l-1.83-3.23a9.19,9.19,0,0,0-2.83-3A7.89,7.89,0,0,0,712,431.4a17.87,17.87,0,0,1-3.52-.72,24.93,24.93,0,0,1-3.11-1.29c-1.89-.91-4-.76-5.83-.89-.18,0-.36.13-.53.15l-.5,5.31h0l.5-5.31a2.35,2.35,0,0,0-.65-.2c-2-.29-4.06-1-6.05-.47a6.65,6.65,0,0,1-5.11-.45c-1.51-.8-3.31-.31-5-.56s-3.13.27-4.27,2.95c-1.31-3.28-3.06-4.59-4.5-2.8s-2,1.7-3.15-.19-2.79-.91-4.86,2c-.63-1.73-1.44-3.05-2.79-3.11-2-.08-4.12-.69-6.1-.09a7.26,7.26,0,0,1-4.89-.14,9.7,9.7,0,0,0-6.24-.07,6,6,0,0,1-4.84,0c-1.57-.72-3.34-.07-5-.21s-3.28.48-4.18,3.25c-2.29-4.3-4.31-4.22-6.24.13-2.11-4.44-5-3.63-6.27.35-.63-1.26-1.33-2.81-2.29-2.76-1.52.07-3.09-.2-4.62-.16a6.15,6.15,0,0,0-4.38,1.86c-.33.33-.53.16-.84-.06-2.41-1.67-3.3-1.26-4.84,1.91-.91-1.21-1.85-2.38-3.07-2.23l-6.29.85c-.86.11-1.14.64-1.61,1.57-.33.76-.54,1-1.17.26-1.91-2.15-3.43-1.83-4.68,1-.44,1-.63.91-1.12,0a3,3,0,0,0-2.78-1.8c-1.49,0-2.41,3.35-2.92,2.87-1.28-1.18-2.4-2.41-3.9-2.13-1.83.35-3.91,0-5.53,1a6.69,6.69,0,0,1-5.21.88c-1.51-.25-1.58,3.19-2.62,2.66-1.31-.64-2.58-1.47-3.92-1a47.89,47.89,0,0,0-5.87,2.49,2.44,2.44,0,0,0-1.47,1.86c-.12,1.11-.7,1.1-1.63,1.33a7.45,7.45,0,0,0-3.09,1.9,8.6,8.6,0,0,0-.68.73c-.2.29-.4.59-.58.91s-.36.63-.52,1a9.79,9.79,0,0,0-.36,1.08,7.38,7.38,0,0,0-.36,2.23,7.87,7.87,0,0,0,.18,2.18,11.35,11.35,0,0,0,.61,1.94c.28.55.59,1.09.91,1.6s1.11.58,1.73.63c1,0,1,.19.65,1.12a4.13,4.13,0,0,0,.62,4.18,3.73,3.73,0,0,0,3.82.69c.63-.17.89-.3,1.08.5.45,1.79,1,2.73,1.85,3s2-.14,3.62-1.17c.24,1.52.66,2.85,1.9,3.32s2.57-1,3.53-1,1.15,2.39,2.43,2.9,2.94-2.14,3.64-1a4.78,4.78,0,0,0,3.12,2.52c1.39.24,2.78.43,4.13.77,1.72.42,3.31.05,4.58-2.61,1.51,4.68,3.43,4.92,6.2,1.05,1.7,4.42,3.29,4.59,6.32.67.37,1.42.89,2.95,1.85,3,3,.31,6,1.91,9-.28.27-.19.47-.33.71,0,1.83,2.45,3.63,1.67,5.26-1.1.66,1.59,1.41,2.68,2.58,2.74,2.1.08,4.28.74,6.3,0a7.63,7.63,0,0,1,5.19.09,9,9,0,0,0,6-.08,7.1,7.1,0,0,1,5.3-.11,7.91,7.91,0,0,0,6-.27,7.74,7.74,0,0,1,5.33-.33,9.25,9.25,0,0,0,5.8-.43,7.91,7.91,0,0,1,5.48-.54c1.88.44,3.77-.3,5.65-.53a2.82,2.82,0,0,0,2.47-2.38c.3-1.07.51-.95,1.11-.15,2,2.69,3.92,2.36,5.09-.79.39-1,.59-.9,1.13-.08a3.08,3.08,0,0,0,2.9,1.61c1.49-.08,2-3.52,2.72-3.06,1.27.84,2.41,2.21,3.83,1.88,1.8-.4,3.77-.28,5.38-1.24s3.22-1.62,5.15-1c.05,0,.1,0,.15,0,1.17-.21,1.34-2.66,2.12-2.73s2.06,1.81,3.26,1.47c2-.55,4.27-.59,6.06-1.75a7.53,7.53,0,0,1,4.84-1.31,8.75,8.75,0,0,0,3.67-.77,9.79,9.79,0,0,0,3.45-2.54c.85-1,1.65-1.91,2.46-2.91a38.26,38.26,0,0,0,2.45-3.28,9.34,9.34,0,0,0,1.44-5A8.1,8.1,0,0,0,722.2,442.14Z" style="fill:#382d15;"/><path d="M571.6,512.36a23.9,23.9,0,0,0-9.27-14.42,18.88,18.88,0,0,0-9.1-3.33,24.24,24.24,0,0,0-8.66.72l-6.93,1.88c-2.21.57-4.44,1.1-6.69,1.47a46.87,46.87,0,0,0-7.25,1.8,46.39,46.39,0,0,0-6.83,2.93,46.08,46.08,0,0,1-12.49,4.47,54.44,54.44,0,0,0-13.52,4.92,45.23,45.23,0,0,1-12.74,4.64c-4.42.94-8.77,3.06-13.18,4.55-2.62.88-4.7,2.16-5.75,4.13-.7,1.31-1.2,1.32-2.62.87a11,11,0,0,0-6.7-.11,10.78,10.78,0,0,0-5.4,4c-1,1.33-1.47,1.29-2.68.7-1.91-.91-4.16-.81-6.69-.21-3.49.79-5.36,4.61-6.94,4.44-2.9-.32-5.32-1.43-8.72-.56-2.16.58-4.42.83-6.62,1.23-1.1.19-2.2.4-3.27.65s-2.14.46-3.16.79a44.14,44.14,0,0,1-6.23,1.56,21.3,21.3,0,0,1-6.26.06,1.87,1.87,0,0,0-.37,0c-2.79.19-4.35,2.65-6.25,2.63-2.17,0-3.88-2.07-6.79-2-5,0-9.9-1-14.56-1.13a23.48,23.48,0,0,1-10.84-2.91,91.08,91.08,0,0,0-13.59-5.87,35.66,35.66,0,0,1-10.75-5.72,55.33,55.33,0,0,0-13-7.47,40.73,40.73,0,0,1-11.26-6.75A52.46,52.46,0,0,0,294.6,503a45.5,45.5,0,0,1-12-7.7c-3.37-2.85-7.45-5.09-11.23-7.57-.36-.24-.78-.33-1.14-.52a13.17,13.17,0,0,0-1.23-1c-3.91-2.88-7.79-6.49-12.18-8.85a55.23,55.23,0,0,1-10.87-7.5c-3.14-2.75-7.51-4.54-11.71-6.41A16,16,0,0,0,228,461.9a7.8,7.8,0,0,0-5.32,1.78,9.34,9.34,0,0,0-1.58-1.21,9,9,0,0,0-1.79-.9c-.31-.12-.64-.24-1-.33s-.61-.15-.92-.21a14.24,14.24,0,0,0-1.86-.23q-.46,0-.92,0a8.43,8.43,0,0,0-.88.11,11,11,0,0,0-1.66.43,6.35,6.35,0,0,0-2.71,1.71c-.69.73-1.32,1.27-1.87,1.77a6.58,6.58,0,0,1-1.69,1.13,11.7,11.7,0,0,1-4.44.77c-3.8.16-7.24,3.76-8.8,9.44a9.28,9.28,0,0,0-7.5,3.88,56.55,56.55,0,0,0-4.85,7.11l-1,1.92c-.31.66-.57,1.35-.83,2s-.53,1.34-.71,2-.33,1.42-.46,2.12c-.27,1.2-.37,2.44-.53,3.61s-.26,2.29-.37,3.39l-.19,1.65-.13,1.67-.18,1.71c-.06.58-.08,1.16-.13,1.76a31.83,31.83,0,0,0,3.38,16.73,103.92,103.92,0,0,1,5.47,11.76c1.5,4,4.7,7.54,7.37,11,2.85,3.76,6.1,6.19,9.75,5.94.95,7.09,5.07,10.55,11.82,10.5a11.35,11.35,0,0,0,4.68,7.63,10.6,10.6,0,0,0,7.89,1.91c.34,1.87.6,4,2.5,5.48,6,4.52,11,10.28,18.22,13a2.67,2.67,0,0,1,1.52,1.4c3.15,4.95,5.1,6.19,10.68,6.71.75,2.22,1.59,4.45,4.15,6.27a136.61,136.61,0,0,0,13.76,8.73,8.93,8.93,0,0,0,5.24,1.15,2.72,2.72,0,0,1,3,1.23,13.12,13.12,0,0,0,5.6,3.88,10.65,10.65,0,0,0,6.43-.33c1.56-.54,2-.29,2.78.81,1.27,1.69,3.48,2.76,6.21,3.37a10.55,10.55,0,0,0,5.28-.72c.75-.27,1.42-.52,2-.69a1.69,1.69,0,0,1,1.26-.11c2.79,1.47,5.22,3.12,9.12,3,1.19,0,2.4,0,3.61,0s2.42,0,3.62,0,2.39-.09,3.55-.2a19.36,19.36,0,0,0,3.35-.66,46.63,46.63,0,0,1,12.91-1.64c3.43-.1,4.9-3.69,7.15-3.42,2.81.31,5.34,1,8.47.11,4.5-1.2,9-2.48,13.4-3.8a8.72,8.72,0,0,0,4-2.16c1.11-1.26,2.12-1.18,3.8-1.34,7.93-.71,15.25-3.86,22.21-7.55a4.78,4.78,0,0,0,1.74-2.05c.57-1.13,1-1.27,2.37-1,4.94,1.14,8.17,0,11.69-4a2.13,2.13,0,0,1,2.3-1c6,.52,8.48-.62,12.21-5.57a11.57,11.57,0,0,0,7.39-.39c2.87-1.17,3.9-3.56,5.87-4.66s4.7.14,7.71-1c3.21-1.2,4-4.77,6.51-4.85a21,21,0,0,0,8.66-1.85c3.08-1.44,6.17-2.87,9.3-4.21,4-1.7,7.1-3.79,7.86-7.28,6.76,1.69,11-.33,14.26-6.6,6.84,1.26,10.28-.45,14.19-7.15,1.76.65,3.92,1.18,6,.08,3.31-1.72,6.81-3.18,10.15-4.87a32.32,32.32,0,0,0,9.07-6.49,2.18,2.18,0,0,1,1.54-.91,11.22,11.22,0,0,0,10.54-8.64,8.82,8.82,0,0,0,7.11-3.68c.48-.6.95-1.28,1.41-2s.88-1.41,1.28-2.13a26.82,26.82,0,0,0,2-4.56A18.71,18.71,0,0,0,571.6,512.36Z" style="fill:#ea472c;"/><path d="M571,482.94c0-.07-.06-.11-.08-.12-.18-.06-.47-.49-.46.21s-.08.77-.41.08-.28,0-.44-.07-.11.56.56,3.22c-1-3-1.46-4.14-1-2.29s.37,1.79-.24.07-.44-.65.3,2.26a12.61,12.61,0,0,0-1.1-2.77c-.15.06-.48-.38-.42.3s-.06.62-.37.13-.54-.5-.46.22,0,.79-.37.12-.28,0-.46-.09-.09.52.82,3.1c-1.72-4-1.89-3.91-.45.13-1.81-4.16-1.8-3.43-.41.24a22.7,22.7,0,0,0-1.26-2.62c-.24,0-1.06-1.19-.27,1.21.1.29,0,.12-.11-.09-.9-1.63-.88-1.35.22,1.44a12,12,0,0,0-1.25-2.23,3.7,3.7,0,0,1-.46.22,3.88,3.88,0,0,0,.43,1.29c.28.66.34.83,0,.17-1.12-2-1.17-1.8-.08.69.39.88.33.79-.11,0A6.53,6.53,0,0,0,562,486c-.18-.08,1.19,2.86.93,2.4a9.8,9.8,0,0,0-1.42-2.16c-.08.16-.54-.37-.3.38s.05.66-.42.09,1.16,2.5.73,1.85a8.31,8.31,0,0,0-1.21-1.67.83.83,0,0,1-.36.26s0,.17.3.82.18.46-.06.16c-1.1-1.42-1.13-.93-.79.12,0,.12.35.69.61,1.16.42.75.4.75,0,.09-1.56-2.32-1.7-2.32-.54-.15.23.42.35.64,0,.14-1.56-2.2-1.56-2,0,.77a10.4,10.4,0,0,0-1.49-1.93c-.1,0,.83,1.58.91,1.83s-1.18-1.57-1.35-1.64,1.4,2.43.82,1.69c-.71-.91-1.17-1.44-1.24-1.35s-.13.2-.28.18,0,.53,1.61,2.88c-2.66-3.53-2.83-3.43-.53.07-2.56-3.28-2.69-3.19-.36.31a18.79,18.79,0,0,0-1.81-2.18c-.17.16-1.25-.84,0,1.24.11.18.19.31,0,.08-1.54-1.75-1.14-1,.52,1.32a11.1,11.1,0,0,0-1.78-1.92c-.13.11-.66-.27-.31.42s.14.6-.34.24-.66-.28-.33.34.23.69-.35.24-.74-.35-.35.32.18.61-.31.29-.7-.3-.36.29.23.66-.33.29-.28.15-.41.23.24.49,1.27,1.62c.69.76.58.66-.06.07-2.12-2-2.24-1.87-.26.3.66.72.53.6-.13,0a6.5,6.5,0,0,0-1.59-1.29c-.2,0,2.07,2.32,1.63,2a12.48,12.48,0,0,0-2-1.57c0,.17-.54-.09-.19.44s.5.85-.35.25c0,0,0,0,0,0s1.57,1.65,1.45,1.62-1.73-1.41-1.76-1.3-.61-.08-.2.5.3.59-.27.28-.77-.2-.34.37.31.6-.24.33-.84-.25-.33.36.25.56-.3.31-.73-.17-.25.38.26.58-.32.34-.32.13-.36.28.12.12.14.15l8.65,6.38.05,0c.16,0,.62.16.15-.34s-.45-.6.21-.23.16-.12.32-.13-.29-.46-2.39-2.23c2.55,1.91,3.53,2.59,2.12,1.34s-1.32-1.25.13-.15.68.36-1.53-1.67a18.22,18.22,0,0,0,2.39,1.78c.07-.1.54.14.11-.38s-.31-.53.19-.23.65.25.22-.31-.42-.65.21-.2.19-.09.38-.06-.2-.46-2.13-2.4c3.24,2.93,3.28,2.85.33-.26,3.32,3.1,2.93,2.53.25-.34.94.9,2.08,2,2.13,2s1.29.83-.31-1.12c-.19-.24-.05-.11.13.06,1.38,1.26,1.23,1-.72-1.24a17.4,17.4,0,0,0,1.86,1.76,2,2,0,0,1,.27-.26,5.35,5.35,0,0,0-.81-1.09c-.46-.56-.56-.7,0-.16,1.62,1.66,1.54,1.47-.16-.65-.6-.75-.52-.67.1,0a9.2,9.2,0,0,0,1.46,1.45c.16.06-1.87-2.46-1.51-2.08a14.26,14.26,0,0,0,1.82,1.83c0-.15.54.3.12-.37s-.23-.61.3-.11-1.61-2.24-1.09-1.67a12.1,12.1,0,0,0,1.43,1.49.47.47,0,0,1,.23-.24s0-.16-.44-.75-.25-.42,0-.15c1.22,1.31,1.11.87.63-.12-.05-.11-.42-.65-.72-1.1-.49-.71-.47-.71,0-.09,1.72,2.2,1.82,2.23.5.16-.26-.4-.39-.61,0-.13,1.66,2.13,1.59,2-.09-.72a14.82,14.82,0,0,0,1.51,1.9c.08,0-.9-1.54-1-1.79s1.18,1.57,1.33,1.65-1.43-2.41-.86-1.66c.7.93,1.12,1.47,1.17,1.41s.09-.16.21-.12-.09-.49-1.53-2.91c2.46,3.67,2.53,3.64.48,0,2.28,3.47,2.33,3.44.34-.25a27.07,27.07,0,0,0,1.56,2.37c.15-.12,1,1.06,0-1.15-.09-.19-.15-.33,0-.07,1.25,2,.91,1.18-.38-1.36a15.53,15.53,0,0,0,1.4,2.21c.11-.06.52.43.27-.29s-.07-.58.29-.11.5.45.29-.21-.11-.7.3-.11.55.58.32-.15-.05-.61.29-.14.5.53.33-.12-.06-.68.3-.13.24,0,.36,0-.09-.52-.64-1.95c-.37-1-.3-.82.06,0,1.21,2.64,1.3,2.61.29-.16-.33-.92-.26-.76.1.06a9.06,9.06,0,0,0,.9,1.83c.14.12-1-2.95-.74-2.44a18.82,18.82,0,0,0,1.11,2.29c.07-.12.37.35.25-.26s-.12-1,.32,0c0,0,0,0,0,0s-.66-2.19-.57-2.1.83,2.07.88,2,.4.39.29-.3,0-.64.28-.06.45.61.36-.09,0-.66.28-.12.46.7.35-.09.06-.58.32,0,.39.6.31-.12.08-.6.34,0,.25.11.34,0a.43.43,0,0,0,0-.2Z" style="fill:#ea472c;"/><path d="M582.32,498.73a.27.27,0,0,0-.06-.13c-.17-.1-.36-.57-.48.12s-.23.74-.41,0-.27,0-.41-.15-.22.53-.1,3.27c-.34-3.17-.58-4.35-.54-2.46s0,1.82-.25,0-.29-.73-.18,2.27a12.85,12.85,0,0,0-.49-2.94c-.16,0-.38-.47-.47.2s-.19.6-.39,0-.41-.61-.49.11-.16.77-.39,0-.27,0-.43-.19-.21.48.08,3.21c-.74-4.31-.92-4.25-.48,0-.78-4.47-.93-3.76-.47.13a23.06,23.06,0,0,0-.6-2.85c-.24,0-.73-1.41-.55,1.11,0,.3,0,.12-.08-.12-.48-1.8-.51-1.53-.15,1.45a12.22,12.22,0,0,0-.65-2.48,3.63,3.63,0,0,1-.49.1,3.93,3.93,0,0,0,.09,1.36c.1.71.11.89-.07.15-.57-2.25-.66-2-.26.65.14,1,.11.85-.1,0a6.65,6.65,0,0,0-.6-2c-.15-.12.4,3.07.26,2.56a10,10,0,0,0-.8-2.46c-.12.14-.42-.5-.39.29s-.13.65-.42,0c-.23-.53.44,2.72.2,2a8.47,8.47,0,0,0-.71-1.94.81.81,0,0,1-.42.15c-.05,0-.07.16.06.87.16.86,0,.49-.1.13-.66-1.67-.82-1.21-.79-.11,0,.13.14.76.26,1.29.19.84.17.83-.06.08-.83-2.67-1-2.71-.48-.3.1.47.15.71,0,.14-.86-2.56-.91-2.36-.23.73a10.59,10.59,0,0,0-.86-2.28c-.1,0,.33,1.75.33,2s-.67-1.85-.81-2,.61,2.74.28,1.85c-.41-1.08-.69-1.72-.78-1.66s-.18.15-.32.08-.11.52.65,3.23c-1.46-4.17-1.63-4.13-.53-.09-1.42-3.91-1.56-3.86-.45.19a19.09,19.09,0,0,0-1-2.64c-.21.1-.92-1.19-.34,1.19.05.21.08.35,0,.07-.91-2.15-.77-1.3.07,1.42a11.24,11.24,0,0,0-1.07-2.39c-.16.06-.53-.47-.42.3s-.06.61-.4.11-.53-.48-.43.21,0,.72-.41.11-.58-.58-.44.18,0,.64-.39.16-.56-.52-.44.15,0,.7-.41.15-.31,0-.46.07.05.54.62,2c.38,1,.31.82-.08,0-1.28-2.61-1.43-2.54-.35.19.36.91.28.75-.12,0a6.6,6.6,0,0,0-1-1.77c-.18-.1,1.1,2.91.82,2.41a12.79,12.79,0,0,0-1.3-2.19c-.09.14-.46-.28-.33.33s.16,1-.41.1c0,0,0,0,0,0s.85,2.12.75,2-1.09-2-1.15-1.86-.53-.3-.37.39.05.66-.35.16-.63-.48-.45.21.06.68-.34.21-.67-.55-.44.2,0,.61-.4.16-.6-.44-.38.25,0,.64-.42.19-.34,0-.44.12.06.16.07.19l5.36,9.31,0,0c.17,0,.53.38.31-.27s-.16-.74.31-.15.22-.06.37,0-.07-.55-1.31-3c1.61,2.75,2.27,3.75,1.46,2s-.73-1.67.19-.09.51.58-.75-2.14A16.34,16.34,0,0,0,562,515.1c.11-.07.47.33.28-.33s-.07-.62.28-.15.54.47.35-.22-.14-.76.29-.12.23,0,.4.07,0-.5-1.09-3c2,3.9,2.05,3.83.42-.13,2,4.08,1.87,3.39.38-.24.56,1.17,1.24,2.61,1.3,2.6s1,1.22.15-1.18c-.1-.29,0-.12.1.1.86,1.65.81,1.4-.23-1.42a15.63,15.63,0,0,0,1.15,2.29,2.46,2.46,0,0,1,.38-.17,4.87,4.87,0,0,0-.38-1.3c-.24-.68-.29-.85,0-.16,1,2.11,1,1.89.09-.67-.32-.91-.26-.81.1,0a8.33,8.33,0,0,0,.9,1.85c.14.11-.93-3-.71-2.47a12.81,12.81,0,0,0,1.13,2.32c.08-.14.43.45.27-.32s0-.66.35,0-.79-2.64-.47-1.93a10.86,10.86,0,0,0,.89,1.86.55.55,0,0,1,.33-.16s0-.16-.17-.85-.09-.48.07-.14c.76,1.62.82,1.17.68.07,0-.12-.19-.75-.34-1.27-.24-.83-.22-.82,0-.08,1,2.62,1.06,2.68.45.3-.12-.46-.18-.7,0-.14.94,2.53.94,2.34.16-.72a13.37,13.37,0,0,0,.88,2.27c.09,0-.38-1.74-.4-2s.67,1.85.79,2-.64-2.73-.31-1.84c.39,1.09.65,1.74.72,1.68s.15-.13.26-.06.08-.5-.6-3.23c1.3,4.22,1.4,4.21.49.12,1.2,4,1.27,4,.42-.15a24.39,24.39,0,0,0,.83,2.71c.19-.07.72,1.29.34-1.13,0-.21-.05-.36,0-.07.67,2.24.57,1.38,0-1.42a14.07,14.07,0,0,0,.76,2.5c.14,0,.41.55.37-.21s.1-.59.34,0,.39.57.37-.13.09-.71.35,0,.4.7.38-.07.12-.6.34-.07.37.64.38,0,.13-.68.36-.05.26.05.39.07.06-.53-.13-2c-.13-1-.09-.87.07,0,.55,2.85.66,2.84.34-.09-.1-1-.07-.8.09.08a8.2,8.2,0,0,0,.46,2c.11.14-.26-3.1-.14-2.54a16.69,16.69,0,0,0,.57,2.48c.11-.1.3.42.34-.2s.12-1,.35,0c0,0,0,0,0,0s-.14-2.28-.07-2.18.36,2.21.43,2.14.33.46.39-.23.15-.63.32,0,.34.69.41,0,.16-.65.32-.06.33.77.4,0,.19-.56.35,0,.29.66.37-.06.22-.57.38,0,.25.16.36.09,0-.09.05-.19Z" style="fill:#ea472c;"/><path d="M587.7,515.77a.27.27,0,0,0,0-.14c-.15-.12-.28-.61-.47.06s-.3.71-.39,0-.25-.07-.37-.2-.27.5-.48,3.23c.05-3.19,0-4.39-.23-2.51s-.23,1.81-.24,0-.19-.76-.45,2.23a13.62,13.62,0,0,0-.1-3c-.16,0-.3-.52-.47.14s-.26.57-.37,0-.31-.66-.48,0-.25.74-.37,0-.25-.09-.38-.25-.26.45-.36,3.19c-.11-4.37-.27-4.34-.46-.05-.11-4.53-.35-3.86-.46.06a24.45,24.45,0,0,0-.15-2.91c-.23-.06-.48-1.5-.68,1,0,.3,0,.11-.06-.13-.18-1.85-.25-1.59-.36,1.41a12.94,12.94,0,0,0-.24-2.55,3.25,3.25,0,0,1-.48,0,4.15,4.15,0,0,0-.12,1.35c0,.72,0,.9-.09.14-.18-2.32-.31-2.12-.35.59,0,1,0,.85-.09-.06a7,7,0,0,0-.25-2c-.12-.15-.11,3.1-.16,2.57a10.58,10.58,0,0,0-.35-2.56c-.13.11-.31-.56-.41.22s-.23.62-.39-.1c-.13-.56,0,2.75-.14,2a9,9,0,0,0-.34-2,.74.74,0,0,1-.41.07s-.09.15-.09.87c0,.87,0,.49-.11.11-.33-1.77-.56-1.34-.72-.25,0,.12,0,.77,0,1.32,0,.86,0,.85-.07.07-.31-2.78-.42-2.85-.4-.39,0,.48,0,.73-.07.13-.35-2.68-.43-2.49-.35.67a11.2,11.2,0,0,0-.39-2.4c-.1,0,0,1.78-.06,2s-.28-1.95-.39-2.09.06,2.81-.08,1.87c-.18-1.14-.32-1.82-.42-1.78s-.2.11-.31,0-.2.49,0,3.29c-.57-4.38-.73-4.38-.48-.2-.58-4.12-.71-4.1-.46.09a20.24,20.24,0,0,0-.46-2.8c-.22.05-.62-1.36-.56,1.08,0,.21,0,.36,0,.06-.41-2.3-.45-1.43-.22,1.4a11.87,11.87,0,0,0-.51-2.57c-.16,0-.4-.58-.46.19s-.18.58-.39,0-.39-.59-.44.11-.16.7-.4,0-.41-.7-.44.07-.18.61-.4.07-.4-.64-.44,0-.17.68-.41.05-.3,0-.44-.05-.07.53.13,2.05c.14,1,.1.87-.08,0-.6-2.84-.75-2.82-.37.1.13,1,.08.8-.1-.08a7,7,0,0,0-.54-2c-.14-.14.35,3.09.2,2.54a13.6,13.6,0,0,0-.7-2.45c-.12.11-.36-.4-.38.24s-.08,1-.41,0c0,0,0,0,0,0s.29,2.26.21,2.17-.54-2.17-.62-2.1-.42-.43-.43.27-.11.65-.36.05-.46-.64-.47.08-.11.67-.37.11-.48-.72-.46.07-.14.59-.4,0-.44-.6-.41.13-.15.61-.44.05-.31-.1-.43,0,0,.17,0,.2l2.5,10.45,0,0c.16.07.41.51.38-.18s.06-.76.34-.06.23,0,.36.09.09-.55-.44-3.24c.79,3.08,1.16,4.23.85,2.36s-.25-1.8.21,0,.34.7-.15-2.27a15.89,15.89,0,0,0,.81,2.87c.13,0,.37.44.37-.24s.1-.61.32-.07.4.59.4-.13.07-.77.32,0,.23,0,.37.17.13-.49-.29-3.2c.93,4.27,1,4.22.44,0,.92,4.44,1,3.75.42-.14a28.74,28.74,0,0,0,.63,2.84c.21,0,.64,1.41.44-1.1,0-.3,0-.12.08.12.44,1.81.45,1.55.12-1.44a15.18,15.18,0,0,0,.58,2.49,2.54,2.54,0,0,1,.41-.07,4.75,4.75,0,0,0-.06-1.36c-.07-.71-.08-.89.06-.15.45,2.28.52,2.07.24-.63-.1-1-.07-.85.09.06a8.12,8.12,0,0,0,.46,2c.12.14-.24-3.09-.13-2.57a12.42,12.42,0,0,0,.58,2.51c.11-.12.32.53.34-.25s.15-.64.35.07c.16.55-.19-2.75,0-2a10.56,10.56,0,0,0,.46,2,.58.58,0,0,1,.36-.09s.07-.15,0-.87c-.06-.87,0-.49.1-.12.4,1.75.56,1.31.66.22,0-.12,0-.77-.07-1.31-.06-.86,0-.85.06-.07.4,2.77.49,2.84.38.38,0-.48,0-.72.06-.13.4,2.67.45,2.48.31-.68a13,13,0,0,0,.41,2.4c.08,0,0-1.78,0-2s.29,1.94.38,2.08-.08-2.81.06-1.87a5.48,5.48,0,0,0,.38,1.79c.09,0,.17-.1.27,0s.18-.48,0-3.29c.47,4.4.58,4.4.45.21.43,4.13.52,4.12.44-.07a23.65,23.65,0,0,0,.32,2.82c.2,0,.48,1.4.54-1,0-.21,0-.36,0-.06.25,2.32.32,1.46.29-1.39a13.73,13.73,0,0,0,.3,2.6c.14,0,.31.61.41-.15s.21-.56.35,0,.29.62.4-.06.21-.68.35,0,.29.75.4,0,.22-.58.36,0,.27.69.39,0,.23-.65.37,0,.25.09.38.12.14-.51.18-2c0-1,0-.88.08,0,.11,2.9.23,2.91.35,0,0-1,.05-.8.08.09a8,8,0,0,0,.16,2c.1.16.2-3.1.24-2.53a16.16,16.16,0,0,0,.2,2.54c.12-.09.24.46.37-.15s.25-.94.35.1c0,0,0,0,0,0s.18-2.28.23-2.16.05,2.23.14,2.18.27.51.42-.18.23-.6.32,0,.25.73.42,0,.25-.62.34,0,.24.81.41,0,.26-.53.35.07.22.69.38,0,.29-.54.38.07.23.18.36.14,0-.08.07-.19Z" style="fill:#ea472c;"/><path d="M582,533.56a.28.28,0,0,0,0-.14c-.09-.16,0-.66-.45-.11s-.53.56-.34-.18-.2-.15-.27-.31-.42.38-1.58,2.86c1.17-3,1.51-4.12.68-2.42s-.84,1.62-.21-.09.09-.77-1.19,1.94a13.84,13.84,0,0,0,.94-2.83c-.14,0-.1-.59-.48,0s-.43.45-.34-.13-.06-.72-.45-.12-.48.62-.33-.14-.2-.16-.26-.36-.39.34-1.39,2.89c1.36-4.16,1.18-4.18-.4-.19,1.4-4.32.95-3.76-.44-.09a24.88,24.88,0,0,0,.81-2.8c-.19-.13,0-1.57-1,.74-.12.28-.07.1,0-.14.43-1.81.27-1.59-.78,1.22a13.13,13.13,0,0,0,.59-2.49,3.08,3.08,0,0,1-.45-.13,4.23,4.23,0,0,0-.54,1.25c-.24.68-.31.84-.13.1.56-2.25.38-2.11-.5.46-.31.91-.29.8-.06-.09a7.14,7.14,0,0,0,.4-2c-.06-.18-1.06,2.91-.94,2.39a10.72,10.72,0,0,0,.46-2.54c-.16.07-.11-.63-.45.09s-.4.52-.33-.21c.05-.57-.87,2.61-.73,1.85a9.11,9.11,0,0,0,.3-2,.7.7,0,0,1-.41-.05s-.13.11-.34.8-.19.45-.14.07c.22-1.78-.12-1.44-.59-.45-.05.11-.23.74-.37,1.26-.23.83-.23.82-.09,0,.53-2.74.43-2.84-.25-.48-.13.46-.2.7-.1.1.45-2.66.32-2.51-.52.55a11.36,11.36,0,0,0,.32-2.41c-.08-.05-.52,1.7-.64,1.95s.29-1.95.23-2.11-.73,2.71-.61,1.77c.15-1.15.21-1.84.11-1.83s-.22,0-.29-.07-.33.41-.91,3.16c.68-4.37.52-4.41-.39-.32.59-4.11.46-4.14-.45,0a20.57,20.57,0,0,0,.33-2.81c-.22,0-.21-1.48-.81.9-.05.21-.09.35-.06,0,.23-2.32,0-1.5-.58,1.29a12.1,12.1,0,0,0,.2-2.61c-.15,0-.23-.66-.48.07s-.32.51-.37-.09-.22-.67-.44,0-.33.64-.38-.09-.21-.79-.44,0-.32.54-.39,0-.22-.72-.42-.07-.32.61-.4-.05-.27-.11-.41-.16-.2.5-.37,2c-.11,1-.11.87-.08,0,.12-2.9,0-2.92-.37,0-.11,1-.11.79-.07-.1a7.09,7.09,0,0,0,0-2c-.1-.17-.4,3.08-.4,2.51a13.75,13.75,0,0,0-.09-2.55c-.14.08-.25-.47-.42.14s-.3.93-.38-.11c0,0,0,0,0,0s-.24,2.27-.29,2.16,0-2.24-.11-2.19-.3-.52-.47.17-.25.61-.36,0-.3-.73-.46,0-.25.62-.37,0-.3-.81-.45,0-.26.55-.39,0-.29-.68-.42,0-.27.56-.43,0-.28-.17-.41-.11,0,.17,0,.2L556,538.8a.32.32,0,0,0,0,.05c.13.11.26.59.37-.09s.19-.73.31,0,.2.05.3.17.18-.52.25-3.26c.1,3.18.19,4.38.29,2.49s.14-1.81.19,0,.16.75.33-2.24a17.8,17.8,0,0,0,.13,3c.12,0,.24.51.37-.15s.21-.58.3,0,.23.66.38,0,.23-.74.29,0,.2.09.29.25.22-.45.45-3.18c-.12,4.37,0,4.34.4.08-.19,4.53,0,3.87.41,0-.06,1.3-.15,2.88-.09,2.91s.24,1.52.64-1c0-.3,0-.11,0,.13,0,1.86,0,1.61.44-1.36a17,17,0,0,0-.08,2.56,2,2,0,0,1,.38,0,5.27,5.27,0,0,0,.27-1.33c.11-.71.14-.89.09-.13-.15,2.31,0,2.13.37-.55.15-.95.15-.84.06.08a9,9,0,0,0-.09,2.06c.07.16.55-3,.52-2.51a13.88,13.88,0,0,0-.11,2.58c.12-.09.15.6.35-.16s.29-.58.29.15c0,.57.54-2.7.48-1.93a11.81,11.81,0,0,0-.11,2.06.47.47,0,0,1,.33,0s.1-.13.24-.83c.18-.85.14-.47.11-.09-.11,1.79.14,1.41.52.38,0-.12.18-.75.29-1.28.18-.84.18-.83.07,0-.39,2.77-.34,2.86.23.47.11-.47.17-.71.08-.11-.37,2.67-.28,2.51.45-.57a14.52,14.52,0,0,0-.3,2.41c.07,0,.47-1.72.58-2s-.29,1.94-.24,2.1.71-2.72.57-1.78a6.09,6.09,0,0,0-.17,1.82c.09,0,.18-.05.24.07s.29-.41,1-3.14c-.84,4.34-.76,4.37.34.32-.81,4.07-.74,4.09.41.05a26.44,26.44,0,0,0-.54,2.78c.19,0,0,1.47.78-.85.07-.2.12-.34.06,0-.47,2.29-.16,1.48.66-1.24a15.34,15.34,0,0,0-.51,2.56c.12,0,.08.67.4,0s.35-.48.29.12.06.67.36,0,.39-.59.3.12,0,.8.34.1.37-.48.31.09,0,.73.32.13.41-.55.31.11.18.16.28.23.28-.44.82-1.88c.36-1,.32-.82.07,0-.85,2.78-.76,2.81.32.07.36-.91.31-.74,0,.11a8.9,8.9,0,0,0-.53,2c0,.18,1.2-2.87,1-2.32a18.17,18.17,0,0,0-.67,2.46c.13,0,.05.51.36,0s.53-.81.26.2c0,0,0,0,0,0s.92-2.09.93-2-.71,2.12-.63,2.09.05.56.42,0,.41-.49.26.13,0,.76.34.16.43-.5.29.09-.09.83.33.16.41-.41.27.18-.07.71.32.11.44-.42.3.18.13.24.25.24.07-.06.13-.15Z" style="fill:#ea472c;"/><path d="M547,271.18a7.09,7.09,0,0,0-2.39-4,8.27,8.27,0,0,0-2.62-1.46,9.8,9.8,0,0,0-1-.28l-.49-.1-.28,0a10.69,10.69,0,0,0-1.55-.15,8.54,8.54,0,0,0-2.72.38,22.72,22.72,0,0,1-3.24,1c-.95.13-1.12,0-1.46-.48a2,2,0,0,0-.9-.53,11.19,11.19,0,0,0-1.85-.48c-.37-.06-.73-.11-1.1-.15v0a11.18,11.18,0,0,1,.37-6.05,14.38,14.38,0,0,0,.34-7.72,9.11,9.11,0,0,1,.24-6c.78-1.91.19-4.11.41-6.17a4.67,4.67,0,0,0-3.1-5.28c4.42-2.66,4.39-5.11.13-7.7,4.56-2.38,3.86-5.94-.06-7.75,1.29-.69,2.88-1.44,2.89-2.63,0-3.73,1.42-7.59-1.15-11.14-.31-.43-.13-.66.11-1,1.8-2.78,1.53-3.87-1.52-6.12,1.28-1,2.52-2,2.47-3.48l-.21-7.71a3,3,0,0,0-1.42-2.4c-.73-.52-.92-.81-.18-1.54,2.25-2.24,2-4.16-.77-5.91-1-.62-.88-.84,0-1.38a3.71,3.71,0,0,0,2-3.24c.09-1.8-3.2-3.23-2.68-3.82l.93-1.05a3.46,3.46,0,0,0,.76-1.38,4.68,4.68,0,0,0,0-2.6,6.05,6.05,0,0,0-.9-1.87,6.57,6.57,0,0,0-1.74-1.69,10.07,10.07,0,0,0-4.06-1.46l-2-.28a8.13,8.13,0,0,0-3.29.11,8.71,8.71,0,0,1-6.2-.58c-1.59-.68-2.86,2.55-3.86,1.72-1.25-1-2.31-2.24-3.92-2.28l-6.94-.16a2.65,2.65,0,0,0-2.25.86c-.72.87-1.19.5-2,.14-4-1.69-8.14-1-12.09.7a3,3,0,0,0-1.28,1.61c-.44,1-.6,1-1.92.82a4.29,4.29,0,0,0-1.91.24,5.19,5.19,0,0,0-1.83,1.2,6.07,6.07,0,0,0-1.68,3.57,3.56,3.56,0,0,0,.45,2.32,7.37,7.37,0,0,0,1.48,1.49c.51.41.77.58.21,1.2-2.51,2.78-2.25,4,1,6.45-1.28,1-2.3,2-2.28,3.47s1.85,2.34,2.14,3.43-1.92,2.12-2,3.66,2.82,2.67,1.89,3.81a6.31,6.31,0,0,0-1.82,4.2c0,1.65.06,3.3-.07,4.95-.17,2.09.4,3.9,3.18,5-4.48,2.54-4.56,4.77-.45,7.69-4.24,2.6-4.3,4.44-.23,7.8-1.4.58-2.89,1.34-2.93,2.51-.05,1.82-.48,3.67-.6,5.5a9.16,9.16,0,0,0,1.25,5.66c.22.34.37.6.08.95a3.87,3.87,0,0,0-1,3.75,5.45,5.45,0,0,0,2.93,2.8c-1.44,1.08-2.37,2.19-2.21,3.57s.12,2.49.16,3.68a10.47,10.47,0,0,0,.49,3.34,5.86,5.86,0,0,1,.35,2.71,13,13,0,0,1-.83,3c-.08.2-.14.41-.21.63L458,257.21l11.42,4.16c0,.38-.07.77-.07,1.17a12.24,12.24,0,0,0,.62,4,17.05,17.05,0,0,1-7.2-.32,10.24,10.24,0,0,0-4.37.24l-.57.15-.28.08-.47.16c-.31.11-.62.23-.93.36a9.71,9.71,0,0,0-1,.54,8.83,8.83,0,0,0-2,1.62,8.59,8.59,0,0,0-1.47,2.33,6.06,6.06,0,0,0-.11,4.77,3.37,3.37,0,0,0,2.22,2c1.25.32,1.21.56.91,1.74a4.84,4.84,0,0,0,.13,2.85,4.74,4.74,0,0,0,1.32,2,4.14,4.14,0,0,0,4.26.38c1.13-.43,1.21-.17,1.17.86a3.84,3.84,0,0,0,1.61,3.4c.67.52,1.66.24,2.55,0l.64-.19a4.68,4.68,0,0,1,.62-.07c.36,0,.62,0,.7.28.62,1.69.89,3.67,2.65,4.55,2.22,1.09,4.18,2.59,6.33,2.94a10.76,10.76,0,0,1,3,.84,5.16,5.16,0,0,1,1.21.8,4,4,0,0,1,.86,1.14s.09.06.13.09c1,.69,3-.75,3.64-.12s.1,2.88,1.31,3.76c2,1.49,3.93,3.76,6.73,4.72.58.2,1.14.4,1.66.62s1.24.57,2.16.9a9,9,0,0,0,3.66.55,15.29,15.29,0,0,0,3.17-.61,13.61,13.61,0,0,0,4.35-2.16,9.31,9.31,0,0,0,1.17-1c-.06-.09.91-.76,1.38-1.28a18,18,0,0,1,5.47-4.17,16.3,16.3,0,0,0,3.13-1.89,11.34,11.34,0,0,0,2.55-2.74,10.7,10.7,0,0,1,5.1-4,12.34,12.34,0,0,0,5.33-4.35,12.08,12.08,0,0,1,5.53-4.4c2-.95,3.71-2.78,5.52-4.58.17-.17.22-.44.35-.62l-3.74-3.8h0l3.74,3.8a5.36,5.36,0,0,0,1.13-1.06,8.65,8.65,0,0,0,1.31-2.17,7.35,7.35,0,0,0,.49-1.81A6.94,6.94,0,0,0,547,271.18Zm-8.54,5.45h0Zm-1.84-5.74,0,0h-.12l.08-.12c.09-.11.13,0,.12.1h0Z" style="fill:#f2c617;"/><path d="M498.48,1085.27c-.91-.56-.73-.64.2-.87,1.45-.36,2-1.1,2.15-2,.07-.61-.7-1.15-1.44-1.53s-1.44-.65-1.17-.9c1-.89,2.46-1.78,2.2-2.9-.3-1.41-.13-3-1.08-4.12s-1.66-2.19-1.19-3.8c0,0,0-.08,0-.11-.27-.88-2.66-.43-2.77-1s1.52-2,1-2.86c-.82-1.38-1.26-3.16-2.75-4.08a5.17,5.17,0,0,1-2.52-3,5.51,5.51,0,0,0-4.12-3.43,9.2,9.2,0,0,1-2.18-.68,6,6,0,0,1-1-.57,9.46,9.46,0,0,1-1-.72,6.19,6.19,0,0,0-2.69-1.27,5.35,5.35,0,0,0-2.95.27,9,9,0,0,1-4.9.57,5.12,5.12,0,0,0-4.56,1.81,6.77,6.77,0,0,1-4,2.51c-1.47.43-2.37,1.72-3.34,2.76-.09.1-.07.3-.14.42a1.58,1.58,0,0,0-.47.3c-1.25,1.13-2.66,2.17-3,3.76a3.73,3.73,0,0,1-2.08,3.06,2.53,2.53,0,0,0-1.13,1.25,7.7,7.7,0,0,1-.78,1.43,1.52,1.52,0,0,0-.32,1.49,6.81,6.81,0,0,0,1.6,2.42c-3.17-1-4.6-1.16-3.64.6s.56,2-1.12,1.15c-.83-.47-1.16-.43-1.18.13a18.43,18.43,0,0,0,.59,3.13c-.62-.63-1.17-1.18-1.61-1.54s-.78-.52-1-.43a4.54,4.54,0,0,1-.62.2c-.22,0-.47.06-.69.11a2.46,2.46,0,0,0-1.31.66,2,2,0,0,1-2.56.34,3.6,3.6,0,0,0-3.54.11,2.21,2.21,0,0,1-2.87-.21c-.86-.78-2-.3-3-.6s-2,.13-3.15,2.72c-.61-4.55-1.68-4.74-4-.86-.22-4.7-2-4.45-4-.91,0-1.35,0-3-.49-3.15-1.61-.53-2.85-2.56-5.63-.92-.33.2-.39,0-.5-.32-.81-2.28-1.75-2.3-3.89.21-.23-1.39-.58-2.81-1.67-3a18.9,18.9,0,0,0-5.82-.08c-.74.08-1.28.73-1.52,1.68-.2.8-.32,1-1,.43-1.06-.85-2.06-1.09-2.64-.68s-.89,1.31-.82,2.85c.08,1.08-.06,1-.94.55-1.33-.73-2.74-.41-3.89,1.26a3.1,3.1,0,0,0-.43,2,3.92,3.92,0,0,0,.73,1.83c.7.94,1.48,1.25,1.27,1.56a10.64,10.64,0,0,0-1.19,2.24,2.28,2.28,0,0,0,.1,2c.2.39.47.79.68,1.21a10,10,0,0,0,.72,1.23,4.19,4.19,0,0,0,2.13,1.76,7.38,7.38,0,0,1,4,2.79c.41.5,1.15.1,1.76-.37s1.14-1,1.31-.47a15.66,15.66,0,0,0,.68,1.71,1.71,1.71,0,0,0,1.06,1c1.36.32,2.58.59,3.75.89a1.13,1.13,0,0,0,1.3-.57c.55-.76.69-.33,1,.14a5.09,5.09,0,0,0,1,1.28,2.71,2.71,0,0,0,.51.39,3.16,3.16,0,0,0,.62.27,7.39,7.39,0,0,0,3.32.19c.27,0,.7-.57,1-1,.51-.73.62-.68.67.16.19,3,1.08,3.37,3,1.44.38-.38.55-.58.68.1.59,3,1.4,3,3.66.43.12,1.42.35,2.61,1.17,2.85s1.78-1.36,2.44-1.45.62,2.22,1.46,2.56,2.15-2.37,2.54-1.3c.5,1.3,1,2.16,1.93,2.29a19.67,19.67,0,0,1,2.77.57c1.14.38,2.29-.08,3.33-2.74.72,4.61,2.12,4.84,4.18.85,1,4.32,2.17,4.46,4.3.41.23,1.4.58,2.9,1.25,2.95,1,.09,2.08.45,3.13.56a3.29,3.29,0,0,0,3.12-1.34c.18-.21.31-.36.49-.06,1.37,2.31,2.63,1.49,3.54-1.42.56,1.53,1.17,2.55,2,2.51,1.46-.05,3.05.41,4.37-.49a3.9,3.9,0,0,1,3.6-.41,4.4,4.4,0,0,0,4.1-.74,3.63,3.63,0,0,1,3.62-.72,4.13,4.13,0,0,0,4-1,4.33,4.33,0,0,1,3.71-1.15,5.11,5.11,0,0,0,4.25-1.82,8.12,8.12,0,0,1,4-2.71c1.71-.63,2.61-2.5,3.54-4,.62-.88.5-2-.65-3.11-.8-.75-.63-.8.33-.87,1.63-.11,2.53-.71,2.75-1.48S499.86,1086.12,498.48,1085.27Z" style="fill:#382d15;"/><path d="M304.29,1084.4c1.45-.36,2-1.1,2.15-2,.07-.61-.7-1.15-1.44-1.53s-1.44-.65-1.17-.9c1-.89,2.46-1.78,2.2-2.9-.3-1.41-.13-3-1.08-4.12s-1.66-2.19-1.19-3.8c0,0,0-.08,0-.11-.27-.88-2.66-.43-2.77-1s1.52-2,1-2.86c-.82-1.38-1.26-3.16-2.75-4.08a5.17,5.17,0,0,1-2.52-3,5.51,5.51,0,0,0-4.12-3.43,9.21,9.21,0,0,1-2.18-.68,6,6,0,0,1-1-.57,9.51,9.51,0,0,1-1-.72,6.18,6.18,0,0,0-2.68-1.27,5.36,5.36,0,0,0-2.95.27,9,9,0,0,1-4.89.57,5.13,5.13,0,0,0-4.56,1.81,6.77,6.77,0,0,1-4,2.51c-1.47.43-2.37,1.72-3.33,2.76-.09.1-.07.3-.14.42a1.58,1.58,0,0,0-.47.3c-1.25,1.13-2.66,2.17-3,3.76a3.73,3.73,0,0,1-2.08,3.06,2.53,2.53,0,0,0-1.13,1.25,7.73,7.73,0,0,1-.78,1.43,1.52,1.52,0,0,0-.32,1.49,6.8,6.8,0,0,0,1.6,2.42c-3.17-1-4.6-1.16-3.64.6s.56,2-1.12,1.15c-.83-.47-1.16-.43-1.18.13a18.43,18.43,0,0,0,.59,3.13c-.62-.63-1.17-1.18-1.61-1.54s-.78-.52-1-.43a4.54,4.54,0,0,1-.62.2c-.22,0-.47.06-.69.11a2.46,2.46,0,0,0-1.31.66,2,2,0,0,1-2.56.34,3.6,3.6,0,0,0-3.54.11,2.21,2.21,0,0,1-2.87-.21c-.86-.78-2-.3-3-.6s-2,.13-3.15,2.72c-.61-4.55-1.68-4.74-4-.86-.22-4.7-2-4.45-4-.91,0-1.35,0-3-.48-3.15-1.61-.53-2.85-2.56-5.63-.92-.33.2-.39,0-.5-.32-.81-2.28-1.75-2.3-3.89.21-.23-1.39-.58-2.81-1.67-3a18.91,18.91,0,0,0-5.82-.08c-.74.08-1.28.73-1.52,1.68-.2.8-.32,1-1,.43-1.06-.85-2.06-1.09-2.64-.68s-.89,1.31-.82,2.85c.08,1.08-.06,1-.95.55-1.33-.73-2.74-.41-3.89,1.26a3.1,3.1,0,0,0-.43,2,3.93,3.93,0,0,0,.73,1.83c.7.94,1.48,1.25,1.27,1.56a10.64,10.64,0,0,0-1.19,2.24,2.28,2.28,0,0,0,.1,2c.2.39.47.79.68,1.21a10.15,10.15,0,0,0,.72,1.23,4.19,4.19,0,0,0,2.13,1.76,7.38,7.38,0,0,1,4,2.79c.41.5,1.15.1,1.76-.37s1.14-1,1.31-.47a15.66,15.66,0,0,0,.68,1.71,1.7,1.7,0,0,0,1.06,1c1.36.32,2.58.59,3.75.89a1.13,1.13,0,0,0,1.3-.57c.55-.76.69-.33,1,.14a5.09,5.09,0,0,0,1,1.28,2.7,2.7,0,0,0,.51.39,3.14,3.14,0,0,0,.62.27,7.39,7.39,0,0,0,3.32.19c.27,0,.7-.57,1-1,.51-.73.62-.68.67.16.19,3,1.08,3.37,3,1.44.38-.38.55-.58.68.1.59,3,1.4,3,3.66.43.12,1.42.35,2.61,1.17,2.85s1.78-1.36,2.44-1.45.62,2.22,1.46,2.56,2.15-2.37,2.54-1.3c.5,1.3,1,2.16,1.93,2.29a19.67,19.67,0,0,1,2.77.57c1.14.38,2.29-.08,3.33-2.74.72,4.61,2.12,4.84,4.18.85,1,4.32,2.17,4.46,4.3.41.23,1.4.58,2.9,1.25,2.95,1,.09,2.08.45,3.13.56a3.29,3.29,0,0,0,3.12-1.34c.18-.21.31-.36.49-.06,1.37,2.31,2.63,1.49,3.54-1.42.56,1.53,1.17,2.55,2,2.51,1.46-.05,3.05.41,4.37-.49a3.9,3.9,0,0,1,3.6-.41,4.4,4.4,0,0,0,4.1-.74,3.63,3.63,0,0,1,3.62-.72,4.13,4.13,0,0,0,4-1,4.33,4.33,0,0,1,3.71-1.15,5.1,5.1,0,0,0,4.25-1.82,8.12,8.12,0,0,1,4-2.71c1.71-.63,2.61-2.5,3.54-4,.62-.88.5-2-.65-3.11-.8-.75-.63-.8.33-.87,1.63-.11,2.53-.71,2.75-1.48s-.37-1.71-1.75-2.56C303.18,1084.71,303.36,1084.63,304.29,1084.4Z" style="fill:#382d15;"/><path d="M838.13,180.74l-.14-1a15,15,0,0,0-3-7.19,18.13,18.13,0,0,0-5.52-4.7,13.66,13.66,0,0,0-7.73-2c-2.52.33-3.91-.27-6.52-.89a43.87,43.87,0,0,0-12-.95c.21-.21.45-.42.74-.67a15.93,15.93,0,0,0,5.23-9,18.08,18.08,0,0,0-1.39-10.77,12,12,0,0,1-.71-1.81,7.42,7.42,0,0,1-.08-2.26,17.78,17.78,0,0,0-2.6-11.33,17.26,17.26,0,0,0-3.74-3.89,23.24,23.24,0,0,0-5.42-2.91,17.12,17.12,0,0,0-8.11-8.35,19.81,19.81,0,0,0-3.29-1.21,28.34,28.34,0,0,0-3-.45c-.94-.1-1.85-.08-2.73-.15-.44,0-.87-.07-1.31-.12s-.87-.08-1.31-.15a20.6,20.6,0,0,1-5-2c-.9-.4-1.87-.8-2.94-1.16a16.9,16.9,0,0,0-3.53-.7,14.38,14.38,0,0,0-3.79.27,32.49,32.49,0,0,0-3.17,1c-2,.75-3.63,1.4-5.48,1.2a32,32,0,0,0-13.56,1.2c-2.59.79-5.12,1.7-7.61,2.65.27-.32.53-.64.78-1,2.26-3.13,3.74-7.24,4.08-12.7a13.43,13.43,0,0,0,3.21-2.42,12.88,12.88,0,0,0,1.46-1.88A13.67,13.67,0,0,0,741,93a57.88,57.88,0,0,0,2-9.08c.27-1.54.32-3.11.45-4.67a44.34,44.34,0,0,0-.1-4.71,32.22,32.22,0,0,0-2-9.22,25.17,25.17,0,0,0-4.86-8,6,6,0,0,1-1.73-2.45A16.87,16.87,0,0,0,726.73,46a16.12,16.12,0,0,0-5.27-1.65,15.77,15.77,0,0,0-2.64-.08,11,11,0,0,0-2.53.32,19.59,19.59,0,0,0-2.07-1.5,14.25,14.25,0,0,0-2.46-1.11c-.45-.16-.91-.31-1.4-.44s-1-.18-1.51-.24a15,15,0,0,0-3.38-.11,55.35,55.35,0,0,0-24,6.73c-3.07,1.8-5.87,3.43-8.69,5-1.38.78-2.75,1.54-4.18,2.28s-2.86,1.5-4.37,2.27a84.34,84.34,0,0,0-18.34,12.78,156.48,156.48,0,0,1-13.81,11.52c.31-1.08.61-2.17.92-3.28a66.72,66.72,0,0,0,2-11.09,58.5,58.5,0,0,0-.11-11.19l-1.22-10.53L633,40.46c-.19-1.74-.41-3.53-.67-5.39A42,42,0,0,0,622.68,14c-3.17-3.72-7-5.86-10.09-5.87a5,5,0,0,1-2.23-.45A7.64,7.64,0,0,1,608.61,6,17.13,17.13,0,0,0,599.38.66a17.55,17.55,0,0,0-10.47.86c-2.15.88-2.78.73-4.37-.15C582,0,578.36-.3,574.21.27a14.09,14.09,0,0,0-3.92,1.12,28.76,28.76,0,0,0-3.15,1.74c-1.85,1.23-3.23,2.33-4.42,2.36-2.15.18-4.2.08-6.31.4a22.72,22.72,0,0,0-3.31.63,26.9,26.9,0,0,0-3.62,1.38C543,11,536.37,14.63,531.39,19.51s-9.34,9.88-14.22,14.81a5,5,0,0,0-.36.5,13.73,13.73,0,0,0-1.56,2.79,23.1,23.1,0,0,0-.75,2.7,17.54,17.54,0,0,1-1.34,4.54,27.37,27.37,0,0,1-3.21,4c-.3.34-.61.69-.91,1.06s-.56.78-.83,1.21a15.56,15.56,0,0,0-1.47,3c-.59,2-1.34,4-1.84,6-.27,1-.57,2-.81,3l-.64,3.08c-.23,1-.36,2.06-.5,3.09s-.29,2.06-.35,3.09a42.38,42.38,0,0,0,0,6.09c0,.35.06.68.08,1-.77-1.06-1.56-2.13-2.4-3.24a44.33,44.33,0,0,0-4-4.59c-.73-.75-1.53-1.44-2.31-2.15s-1.69-1.37-2.57-2a35.07,35.07,0,0,0-11.44-5.38,68.73,68.73,0,0,0-11.05-1.95,42.14,42.14,0,0,0-11.4.44l-1.5.3-1.5.45c-.5.16-1,.3-1.5.49l-1.47.63A24.84,24.84,0,0,0,446,65.81a25.16,25.16,0,0,0-4.53,4.56,24.87,24.87,0,0,0-3.14,5.22,49.23,49.23,0,0,0-2.23,5.9c-.61,1.93-1.11,3.84-1.52,5.74a76.54,76.54,0,0,0-1.62,11.57c-.46,7.22,1.29,14.69,3.77,21.59.25.66.62,1.21.89,1.82.26.83.57,1.68.92,2.56a60.49,60.49,0,0,0,6,11,45.2,45.2,0,0,0,8.1,8.95c3.29,2.73,6.32,5.09,9.28,7.55-.91.06-1.83.12-2.74.14a49.68,49.68,0,0,0-7.89.69,20.62,20.62,0,0,0-3.32.9,14.13,14.13,0,0,0-1.47.64c-.23.12-.46.24-.67.37l-.29.2a.37.37,0,0,0-.1.1h0l0,.26q0,.59-.11,1.18c0,.36-.07.62-.12.92a1.66,1.66,0,0,1-.1.44h0l-1.63-2.22,0,.09L442,154.24a4.91,4.91,0,0,0-1.84,3.13,18.47,18.47,0,0,0-6.36,3.67,14.38,14.38,0,0,0-4.82,8.25,50.42,50.42,0,0,1-1.24,6.67c-.57,1.9-1.4,3.7-2.51,6.4a12.75,12.75,0,0,0,.43,9.62,17.06,17.06,0,0,0,8.3,8.51,12.35,12.35,0,0,0,2.56,5,16.06,16.06,0,0,0,6,4.36c1,.42,2,.88,3,1.21s2,.73,3.06,1l1.53.45,1.41.35,2.83.69c1.88.45,3.76.88,5.63,1.25s3.74.57,5.59.75c3.22.3,6.17.72,9.14,1.11,1.48.21,3,.46,4.45.75s3,.62,4.6.92c1.86.37,3.77.7,5.72,1,1,.14,2,.29,2.94.4l3,.25a87.8,87.8,0,0,0,11.7.21,101.1,101.1,0,0,1,18.06.47,66.82,66.82,0,0,0,9.18.27c3.15-.13,6.35-.33,9.46-.33,6.59-.1,12.16-1,15.54-3.94a24,24,0,0,0,12,2.51,22.78,22.78,0,0,0,11.15-4.06c7.55,4,18.06,2.39,23.19-2,2.16,1.12,4.51,2.52,8,2.25l2.09-.15c.7,0,1.42-.09,2-.1,1.27,0,2.64,0,4,0l8.33.13a71.54,71.54,0,0,0,16.53-1.49,5.74,5.74,0,0,1,3.06.13c8.25,1.86,11.53,1.61,18.47-1.41a22.35,22.35,0,0,0,10.31,2.5c7.74-.08,15.49-.16,23.24-.31a18.14,18.14,0,0,0,7.32-1.52,5.11,5.11,0,0,1,4.65-.26c6.61,2.13,12.46,1.72,17.86-1.24,1.91-1,2.58-1,4.15-.13,2.41,1.29,5.76,1.66,9.71,1.52,5.46-.18,9.86-3.76,11.6-3.36,4.33,1,8,2,13.5,1.37,6.77-.8,14.06-1,20.29-2.82a139.05,139.05,0,0,1,18.86-3.78,12.43,12.43,0,0,0,5.93-2.88c.78-.59,1.5-1.2,2.23-1.68a6.34,6.34,0,0,1,2.32-1c1-.19,2.08-.32,3.1-.57a22.44,22.44,0,0,0,3.09-.84,16.77,16.77,0,0,0,6.53-3.93,17.68,17.68,0,0,0,4.16-5.94,17.21,17.21,0,0,0,.66-1.89c.15-.67.28-1.34.39-2a15.82,15.82,0,0,0,.08-2C838.15,181.4,838.16,181.06,838.13,180.74Zm-48.6-8h0Z" style="fill:#382d15;"/><path d="M671.93,323.66a7.65,7.65,0,0,0-2.59-4.28,9.31,9.31,0,0,0-3-1.63,11.8,11.8,0,0,0-1.13-.33l-.58-.12-.37-.06a14.09,14.09,0,0,0-1.92-.19,12.26,12.26,0,0,0-3.46.4c-3.62,1.05-6,1.78-7.25.66a6.5,6.5,0,0,0-1.48-.68,17.46,17.46,0,0,0-2.45-.64,26.87,26.87,0,0,0-3.13-.36,18,18,0,0,0-.11-2.3,22,22,0,0,1,.52-8.48,27.75,27.75,0,0,0,.49-10.82,17.75,17.75,0,0,1,.33-8.38c.81-2.69.24-5.77.48-8.66.26-3.07-.35-5.69-3.06-7.38,4.44-3.76,4.42-7.18.16-10.82,4.57-3.35,3.86-8.34-.06-10.89,1.29-1,2.87-2,2.88-3.68,0-5.24,1.39-10.65-1.2-15.66a1.35,1.35,0,0,1,.1-1.44c1.78-3.9,1.5-5.43-1.57-8.61,1.27-1.37,2.5-2.76,2.44-4.87l-.29-10.84a4.87,4.87,0,0,0-1.45-3.39c-.74-.74-.93-1.14-.2-2.16,2.23-3.12,2-5.83-.84-8.31-1-.88-.89-1.2,0-1.94a5.68,5.68,0,0,0,1.91-4.53c.07-2.53-3.24-4.58-2.73-5.4l.92-1.47a5.5,5.5,0,0,0,.74-1.8,6,6,0,0,0-.13-3,6.94,6.94,0,0,0-1-2.08,7.39,7.39,0,0,0-1.94-1.87,11.48,11.48,0,0,0-4.71-1.67l-2.65-.33a16,16,0,0,0-4.62,0,16.94,16.94,0,0,1-8.72-.78c-2.25-.73-3.93,2.48-5.36,1.62-1.78-1.07-3.29-2.3-5.53-2.37-3.21-.09-6.44-.19-9.68-.25a4.54,4.54,0,0,0-3.13.86c-1,.87-1.66.5-2.83.15-5.51-1.66-11.24-.85-16.74,1.08a3.74,3.74,0,0,0-1.74,1.7c-.61,1.09-.86,1.11-2.39,1a5.38,5.38,0,0,0-2.17.42,6.17,6.17,0,0,0-2,1.43,7.14,7.14,0,0,0-1.84,4.13,5.43,5.43,0,0,0,.47,2.92,10.32,10.32,0,0,0,1.53,2.15c.52.59.79.84.25,1.7-2.43,3.85-2.15,5.64,1.18,9.12a6.69,6.69,0,0,0-2.23,4.87c0,2.11,1.88,3.33,2.19,4.87s-1.91,3-2,5.15,2.83,3.78,1.9,5.39a11,11,0,0,0-1.82,5.93c0,2.33,0,4.66-.09,7-.19,2.95.37,5.5,3.14,7.07-4.5,3.62-4.61,6.78-.54,10.83-4.27,3.72-4.37,6.31-.34,11-1.41.83-2.91,1.93-3,3.57-.08,2.57-.53,5.16-.68,7.74a16.35,16.35,0,0,0,1.18,7.86c.22.46.38.82.08,1.3a6.52,6.52,0,0,0-1,5.13,7.56,7.56,0,0,0,3,4c-1.4,1.44-2.28,2.95-2.05,4.9.21,1.77.23,3.54.32,5.25a24.82,24.82,0,0,0,.56,4.87,11.37,11.37,0,0,1,.29,4,23.84,23.84,0,0,1-1,4.25,20.24,20.24,0,0,0-.88,5.59,16.53,16.53,0,0,0,1.1,6.41c.15.37.32.73.48,1.1a26,26,0,0,0-3.13.22,35.06,35.06,0,0,1-10-.42,15.76,15.76,0,0,0-5.75.4l-.74.19-.37.1-.55.19q-.56.2-1.1.42a11.14,11.14,0,0,0-1.17.62,10,10,0,0,0-2.25,1.83,15.67,15.67,0,0,0-.95,1.26,10.54,10.54,0,0,0-.71,1.37,7.39,7.39,0,0,0-.18,5.52,4.88,4.88,0,0,0,1,1.61,3.67,3.67,0,0,0,1.36.93c.65.28,1,.46,1.15.79a3,3,0,0,1,0,1.44,6.33,6.33,0,0,0,.51,3.35,6.86,6.86,0,0,0,1.8,2.41,6.14,6.14,0,0,0,5.29,1.14c1.35-.28,1.51,0,1.64,1.17a5.87,5.87,0,0,0,2.71,4.09,4.77,4.77,0,0,0,3.34.51l.79-.07a6.47,6.47,0,0,1,.76,0c.45,0,.78.16.92.43,1.08,2,1.71,4.21,4.11,5.43,3,1.53,5.84,3.42,8.78,4.14a20.16,20.16,0,0,1,4.17,1.42,10.23,10.23,0,0,1,1.77,1.1,7.57,7.57,0,0,1,1.42,1.47c0,.06.13.09.2.13,1.45,1,3.75-.23,4.74.64s.73,3.35,2.42,4.62c2.86,2.13,5.59,5.08,9.24,6.57.76.31,1.5.61,2.18.93s1.59.76,2.69,1.16a10.27,10.27,0,0,0,4.24.63,16.24,16.24,0,0,0,3.75-.81,19.77,19.77,0,0,0,5.65-3c.72-.53,1.36-1.05,1.81-1.44.16-.23,1.36-1,2-1.67a38.28,38.28,0,0,1,7.45-5.67,32.9,32.9,0,0,0,4.3-2.86,22,22,0,0,0,3.73-3.69,20.92,20.92,0,0,1,7.16-5.71,24.17,24.17,0,0,0,7.51-6.11,23.63,23.63,0,0,1,7.76-6.2c2.71-1.5,5.13-3.92,7.59-6.36a8,8,0,0,0,.53-.8l-3.74-3.8h0l3.74,3.8a7.28,7.28,0,0,0,1.36-1.31,10,10,0,0,0,1.5-2.49,8.15,8.15,0,0,0,.54-2A7.51,7.51,0,0,0,671.93,323.66Z" style="fill:#ea472c;"/><path d="M781.07,279.28a7.38,7.38,0,0,0-2.49-4.12,8.8,8.8,0,0,0-2.8-1.55,10.86,10.86,0,0,0-1-.3l-.53-.11-.33-.06a12.41,12.41,0,0,0-1.74-.17,10.41,10.41,0,0,0-3.1.39,31.28,31.28,0,0,1-3.89,1.06,2.18,2.18,0,0,1-2.12-.49,3.88,3.88,0,0,0-1.2-.61,14.32,14.32,0,0,0-2.16-.56c-.7-.13-1.4-.2-2.09-.25,0-.4,0-.8-.11-1.2a16.28,16.28,0,0,1,.45-7.3,20.71,20.71,0,0,0,.42-9.31,13.18,13.18,0,0,1,.28-7.21c.79-2.31.21-5,.44-7.45.25-2.64-.37-4.89-3.08-6.36,4.43-3.22,4.4-6.17.14-9.3,4.56-2.88,3.86-7.17-.06-9.36,1.29-.83,2.87-1.74,2.88-3.17,0-4.51,1.41-9.16-1.18-13.46-.31-.52-.13-.8.1-1.24,1.79-3.35,1.52-4.67-1.55-7.4,1.27-1.18,2.51-2.38,2.46-4.19l-.25-9.32a3.89,3.89,0,0,0-1.44-2.91c-.74-.63-.93-1-.19-1.86,2.24-2.69,2-5-.81-7.14-1-.75-.88-1,0-1.66a4.64,4.64,0,0,0,1.93-3.91c.08-2.18-3.22-3.93-2.71-4.63l.93-1.26a4.43,4.43,0,0,0,.75-1.6,5.37,5.37,0,0,0-.08-2.82,6.52,6.52,0,0,0-1-2,7,7,0,0,0-1.84-1.78,10.8,10.8,0,0,0-4.4-1.57l-2.31-.31a11.82,11.82,0,0,0-4,.05,12.59,12.59,0,0,1-7.5-.68c-1.93-.71-3.41,2.52-4.63,1.67-1.52-1.06-2.81-2.27-4.75-2.32l-8.35-.21a3.55,3.55,0,0,0-2.7.86c-.86.87-1.43.5-2.44.14-4.76-1.67-9.73-.92-14.48.89a3.36,3.36,0,0,0-1.52,1.66c-.53,1.06-.74,1.07-2.16.92a4.84,4.84,0,0,0-2,.34,5.68,5.68,0,0,0-1.93,1.32,6.62,6.62,0,0,0-1.76,3.85,4.48,4.48,0,0,0,.46,2.63,8.72,8.72,0,0,0,1.5,1.83c.52.5.78.71.23,1.46-2.47,3.33-2.2,4.85,1.1,7.82-1.28,1.19-2.28,2.39-2.25,4.19s1.86,2.85,2.17,4.17-1.92,2.55-2,4.43,2.83,3.24,1.9,4.62a8.52,8.52,0,0,0-1.82,5.09c0,2,.05,4-.08,6-.18,2.53.38,4.72,3.16,6.08-4.49,3.09-4.58,5.8-.5,9.3-4.26,3.18-4.33,5.4-.29,9.43-1.41.71-2.9,1.64-2.95,3.06-.07,2.21-.51,4.43-.64,6.65a12.59,12.59,0,0,0,1.22,6.79c.22.4.37.71.08,1.13a5.13,5.13,0,0,0-1,4.46,6.43,6.43,0,0,0,3,3.42c-1.42,1.26-2.32,2.58-2.13,4.26.18,1.52.18,3,.24,4.49a16.85,16.85,0,0,0,.53,4.13,8.52,8.52,0,0,1,.32,3.37,18.17,18.17,0,0,1-.91,3.63,16.09,16.09,0,0,0-.83,4.87,14.16,14.16,0,0,0,1,5.69v0c-.5,0-1,.1-1.5.18a25.16,25.16,0,0,1-8.69-.36,13,13,0,0,0-5.08.32l-.66.17-.33.09-.51.17q-.51.18-1,.39a10.42,10.42,0,0,0-1.09.58,9.43,9.43,0,0,0-2.12,1.73,14,14,0,0,0-.9,1.19,9.86,9.86,0,0,0-.67,1.3,6.74,6.74,0,0,0-.15,5.15,4.28,4.28,0,0,0,1,1.46,3.33,3.33,0,0,0,1.32.81c1.29.42,1.27.7,1,2a5.58,5.58,0,0,0,.32,3.1,5.78,5.78,0,0,0,1.57,2.19,5.1,5.1,0,0,0,4.79.77c1.24-.35,1.36-.07,1.41,1a4.8,4.8,0,0,0,2.18,3.76,3.78,3.78,0,0,0,3,.25l.72-.13a5.53,5.53,0,0,1,.69,0c.41,0,.7.1.82.36.86,1.85,1.31,3.95,3.4,5,2.63,1.31,5,3,7.59,3.56a15.26,15.26,0,0,1,3.6,1.13,7.56,7.56,0,0,1,1.5,1,5.71,5.71,0,0,1,1.15,1.31c0,.06.11.07.17.11,1.21.85,3.37-.48,4.2.27s.43,3.12,1.88,4.2c2.46,1.82,4.78,4.44,8,5.67.67.26,1.33.51,1.93.78s1.42.67,2.44,1a9.66,9.66,0,0,0,4,.59,15.7,15.7,0,0,0,3.47-.71,16.7,16.7,0,0,0,5-2.6,18.08,18.08,0,0,0,1.5-1.22c.06-.16,1.14-.89,1.72-1.48a27.07,27.07,0,0,1,6.49-4.94,24,24,0,0,0,3.73-2.39,16.37,16.37,0,0,0,3.16-3.23,15.53,15.53,0,0,1,6.16-4.9,17.92,17.92,0,0,0,6.45-5.25,17.53,17.53,0,0,1,6.67-5.33c2.38-1.23,4.44-3.36,6.58-5.5a6.31,6.31,0,0,0,.45-.71l-3.74-3.8h0l3.74,3.8a6.32,6.32,0,0,0,1.25-1.19,9.35,9.35,0,0,0,1.41-2.33,7.76,7.76,0,0,0,.51-1.9A7.24,7.24,0,0,0,781.07,279.28Z" style="fill:#4e73b9;"/><path d="M971.2,902.51c-.78.8-1.47,1.58-2.09,2.29l-.21-.18-.24.68a7.86,7.86,0,0,1-2.71,2.37c-4.83,1.38-9,2.3-14.34,5.64-6.59,4.1-14,7.75-19.75,12.15a96.39,96.39,0,0,1-16.12,9.86q1.81-4.29,3.46-8.57a22.82,22.82,0,0,0,1.82-7.4c0-2.59.91-4,2.2-6.45,1.52-2.9,2.9-5.92,4.22-8.73l1-2.13,1.05-2.27c.68-1.53,1.35-3.06,2-4.63a139.61,139.61,0,0,0,6.22-19.34,10.2,10.2,0,0,0,0-4.28c-.36-1.79-.1-2.49,1.19-4.27,4.63-6.29,6.18-12.53,4.53-21.19a6.75,6.75,0,0,1,.14-4.5l.07-.2,1.17-3.48-5.6-.36a19.94,19.94,0,0,0-7.35.7,15.76,15.76,0,0,0-5.83,3.2,16.62,16.62,0,0,0-2.18,2.27,20.09,20.09,0,0,0-1.68,2.57,36.68,36.68,0,0,0-2.49,5.95c-1.51.8-3,1.62-4.45,2.51s-3,1.9-4.86,3.27c-3.79,2.7-5.67,5.73-8.85,7.89a21.85,21.85,0,0,1-5.48,2.22,21.72,21.72,0,0,0-6.89,3.41,20.52,20.52,0,0,0-5.06,6.05c-1.2,2-2.21,3.69-4,4.82a49.41,49.41,0,0,0-11.34,10L863.25,899l-2.78,3.25-1.41,1.59c-.47.52-1,1.08-1.38,1.5-2.22,2.3-4.66,4.66-6.48,7a16.53,16.53,0,0,0-3.57,7,32.18,32.18,0,0,0-5.41,2.19,32.67,32.67,0,0,0-3.85-12.32,15.82,15.82,0,0,0,1.63-9.42,125.81,125.81,0,0,1-1.23-18.29c0-1.48.1-2.91.1-4.35s.15-3.07.17-4.59a84.43,84.43,0,0,0-.22-9.25,5.8,5.8,0,0,1,.29-3,31.45,31.45,0,0,0,1.38-22,22.79,22.79,0,0,0,3.78-11.18,184.45,184.45,0,0,0,1.13-20L845,788.3l-10,15.65c-1.3,2-2.55,4-3.64,6.09a176.59,176.59,0,0,1-11.7,18.77A125.77,125.77,0,0,0,807.33,851a154.58,154.58,0,0,1-10.13,20.09,120.58,120.58,0,0,0-5.89,11.23,67.51,67.51,0,0,0-4.18,12.45,131.63,131.63,0,0,1-6.94,21.46c-3,7.27-6,15.22-8.63,22.1a43,43,0,0,1-2.24,4.89c-1.94-6.42-4.74-12.71-7.13-19-1.7-4.46-3.72-8.1-6.18-10.12-1.64-1.35-1.81-2.16-1.8-4.42a26.31,26.31,0,0,0-9.75-19.92c-2-1.57-2.18-2.32-2.26-4.26-.11-3.07-1.6-6.69-3.84-10.66-3.12-5.49-8.45-7.82-9.33-10.27-.81-2.28-1.4-4.39-2.2-6.59a34.73,34.73,0,0,0-1.42-3.37c-.28-.58-.6-1.17-.94-1.77s-.71-1.2-1.2-1.92c-2.4-3.48-4.8-6.7-7.21-9.83s-4.82-6.09-7.29-8.8a75.54,75.54,0,0,1-6.82-8.4,31.81,31.81,0,0,1-4.47-9.09,4.39,4.39,0,0,0-.24-.53,21.73,21.73,0,0,0-2.25-3.9c0-.78,0-1.56-.08-2.33l-.09-2.12-1.82-.08h0l-3.33-.15h0l-3.33-.15h0l-1.82-.08a26.5,26.5,0,0,0,.62,5.07,22.07,22.07,0,0,0-1.4,7.05c-.17,8.93-.81,18.15-.09,26.72.31,3.63.52,7,.56,10.31s0,6.7-.24,10.35A142.76,142.76,0,0,0,685,891.54a139.3,139.3,0,0,1,1.31,21.23,139.45,139.45,0,0,0,2,25.79c.48,2.65.84,5.17,1.13,7.66l-.14-.14c-3.16-3.17-6.19-6.08-9.19-9s-6.08-5.72-9.36-8.63c-6-5.17-13.43-9.28-20.9-12.57-.68-.31-1.38-.46-2-.71l-.08,0-2.16,5a.38.38,0,0,1-.17.23s-.07,0-.15.07l-.23.16a3.13,3.13,0,0,1-.5.26c-.19.08-.31.09-.61.23a13.93,13.93,0,0,1-1.58.59l-.85.24-.74.24a1.32,1.32,0,0,0,0,.29l.17,1.17c.28,1.92.47,4.08.66,6.2l.52,6.45c.36,4.31.78,8.58,1.46,12.67a115.51,115.51,0,0,1,1.77,21.78,88.57,88.57,0,0,0,.61,10.48l.62,5.43c.22,1.84.42,3.61.69,5.63,0,.28.08.52.14.85l.15.75.26,1.23c.18.81.36,1.61.56,2.39a45.36,45.36,0,0,0,1.32,4.41,18.7,18.7,0,0,0,4,6.84,30,30,0,0,0-1,10.95,19.45,19.45,0,0,0,3.4,9.58,38.4,38.4,0,0,1,4,6.16,53.73,53.73,0,0,1,2.53,7,16.19,16.19,0,0,0,6.4,8.06,24.36,24.36,0,0,0,12.11,4,20.9,20.9,0,0,0,4.34,4,24.74,24.74,0,0,0,3.1,1.67c.58.26,1.19.52,1.83.76s1.33.43,2.06.62c4.36,1.26,8.81,2.28,13.24,3.17a85,85,0,0,0,13.14,1.47c7.46.17,13.79.49,21.18,1.2a118.51,118.51,0,0,0,26.84-.66,144.84,144.84,0,0,1,20.69-1.68c6.77,0,14.23-1.66,21.34-2.69,7.55-1.08,13.81-3,17.22-6.56,10.16,2.25,18.55,0,25.9-6.6a24,24,0,0,0,7.26.35,30.4,30.4,0,0,0,7.41-1.83c4.71-1.9,8.67-4.92,10.67-8.11a30.28,30.28,0,0,0,4.41-.08,13.7,13.7,0,0,0,5.12-1.75,146.55,146.55,0,0,0,16.9-11,59.63,59.63,0,0,0,13.54-14.34,8.39,8.39,0,0,1,2.59-2.52c7.91-6,10.23-9.32,12.65-17.6a26.63,26.63,0,0,0,9-8.44c5-7.6,9.49-15.45,13.71-23.43a22.83,22.83,0,0,0,2.7-8.21,6.83,6.83,0,0,1,2.25-4.9c5.38-5.82,8-12.1,8.06-19,0-2.45.42-3.11,2-4.36,2.35-1.92,4.34-5.25,6.17-9.39a22.74,22.74,0,0,0,1.63-6.2l2-14.88Zm-71.59,48.68Zm-65.67-12.12Z" style="fill:#4e73b9;"/><path d="M763.56,984.79a14,14,0,0,0-1.26-3.7,17.21,17.21,0,0,0-4.51-.34,15.54,15.54,0,0,0-5.62,1.55l-2.39,1.15c-1.56.74-3.12,1.51-4.64,2.31a64.94,64.94,0,0,0-8.66,5.28,98.81,98.81,0,0,1-14.62,9.23c-4.76,2.41-9.19,6.38-13.7,9.71l-.08.06c1.71-3.31,2-7.94,1.18-13.53a15,15,0,0,0,3.16-3.37,16.12,16.12,0,0,0,2.3-5.29c1.74-6.6,3.77-13.37,4.38-19.94.13-1.43.28-2.8.46-4.15s.35-2.66.57-4c.47-2.62,1-5.23,1.69-8A79.62,79.62,0,0,0,724.07,931c-.05-3.13-.13-6,.08-8.87l.86-11.68-8.84,7.8a64.81,64.81,0,0,1-5.8,4.48c-4.35,3-8.19,7.61-12.19,11.52a33.4,33.4,0,0,0-5.19,6.26,12.62,12.62,0,0,0-2,6.3c-8.12,2.66-12.35,8-13.07,16.15-7.54,2.46-12.54,11-11.79,17.27a23.12,23.12,0,0,0-2.7,1.23,5.25,5.25,0,0,1,.3-2.17c1-3.69,1.53-6.3,1.31-8.76a20.66,20.66,0,0,0-2.54-7.88,27.15,27.15,0,0,0,1.68-4.11,14.7,14.7,0,0,0,.61-5.23l-.25-5.24c-.09-1.75-.24-3.49-.36-5.23-.21-3.49-.56-7-.9-10.46a14.15,14.15,0,0,0-2.09-6.43,4.18,4.18,0,0,1-.64-4.14,20.72,20.72,0,0,0,.36-8.55,17,17,0,0,0-3.45-7.23c-1.23-1.56-1.28-2.15-.63-3.67.95-2.32,1-5.39.27-8.87a16.14,16.14,0,0,0-2.84-6.08c-1.15-1.62-2.16-2.83-2.09-3.64.38-4,.8-7.4-.61-12.19-.91-2.93-1.72-6-2.56-9l-3.25-11.54-6.92,10a59.06,59.06,0,0,0-4.67,7.7,78.29,78.29,0,0,1-8.81,14.51,9.82,9.82,0,0,0-1.78,5.44c-.16,1.74-.25,3.28-1.26,4.37-2.53,2.67-4.8,4.92-6.64,8.8-2.54,5.59-5,11.21-7.26,16.92a25.51,25.51,0,0,0-1,3,9.23,9.23,0,0,0-.28,2.81c.16,2.1-.63,3.13-1.73,5.06-5.08,9.11-7.73,19.51-9.14,29.92a7.18,7.18,0,0,0,.6,3.36c.57,1.4.44,2-.67,3.34a17,17,0,0,0-3.7,7.44,19.59,19.59,0,0,0,.3,8.7,3.62,3.62,0,0,1-.38,3.33,26.33,26.33,0,0,0-2.06,4.43,20.89,20.89,0,0,0-1.41-6.53,14.13,14.13,0,0,0-3.68-4.66c-1.29-1.22-2.4-2.32-2.71-3.91a41.6,41.6,0,0,0-1.42-5.57,34.26,34.26,0,0,0-2.46-5.45l-6.84-11.78a33.5,33.5,0,0,0-4.61-6.4,11.24,11.24,0,0,0-5.4-3.33c-.25-8.4-3.88-13.66-11.71-17.26a24.52,24.52,0,0,0-1.68-6.68,15.71,15.71,0,0,0-3.48-5l-9.14-8.89-.51,11.12a27.85,27.85,0,0,0,1.28,9.27,10.55,10.55,0,0,0-3.87,6.67c-.63,5-1.48,10-1.82,15.11a45.38,45.38,0,0,0,1.11,14.94,3.73,3.73,0,0,1,.11,2.37,19.68,19.68,0,0,0-.8,9.38,19.42,19.42,0,0,0,3.36,7.85,14.93,14.93,0,0,0-1.35,9.28c.71,4.78,1.44,9.73,2.6,14.4-1.26-1.48-2.51-3-3.79-4.66A62.41,62.41,0,0,0,517.42,987a107.44,107.44,0,0,1-8.93-6.51L501,974.31l-.35,9.88c-.08,2.29-.36,4.6-.45,7a54.48,54.48,0,0,0,2.37,19.8c2.06,6.26,3.68,11.74,5.46,18,1.72,6,5.23,11.9,8.63,17.44,2,3.31,4.44,5.75,7,6.63,1.73.56,2,1.14,2.34,3q.08.44.19.88l2.94,1.42a17.36,17.36,0,0,0,16.17-.23c1.8-1,2.38-.78,3.7.13,2.09,1.42,5,2,8.54,2.1a15.34,15.34,0,0,0,6.4-1.41l5.21,7.12-3-8A3.41,3.41,0,0,1,568,1058c3.64,1.07,6.49,2.62,11.24,2.56,6-.08,12.27.44,18-.21,5.94-.67,11.43-1,17.15,0a3.49,3.49,0,0,0,.51,0c3.86,0,6.2-2.35,8.75-2.27,2.92.09,5.24,2.16,9.31,2,6.87-.19,14,.24,20.65-.65a74.57,74.57,0,0,1,16-.56,92.23,92.23,0,0,0,20.56-1,78,78,0,0,1,16.45-1,88.87,88.87,0,0,0,20-1.39c1.12-.22,2.22-.41,3.27-.57l2.47-.37,1-1.46c3.18-4.46,5.6-8.45,8.41-12.57a67.94,67.94,0,0,0,8.41-16.86,132.72,132.72,0,0,1,7.46-17.83,67.76,67.76,0,0,0,3.32-8.51c.46-1.48.93-3,1.36-4.45l.65-2.23c0-.08.19-.63.29-1.08a13.65,13.65,0,0,0,.26-1.48A12.09,12.09,0,0,0,763.56,984.79Z" style="fill:#ea472c;"/><path d="M126.29,543.88c-.61-.27-1.16-.43-1.69-.65s-1-.37-1.49-.55a20.42,20.42,0,0,1-2.83-1.39c-1.8-1-4.07-.51-6.25-.17-1.92.29-3,1.37-2.81,4.22a7.26,7.26,0,0,0-3-2.24c-.79-.2-1.27.17-1.41,1.22-.26,2-.83,2.2-2,.63a2,2,0,0,0-.73-.68c-.21-.06-.37,0-.53.24-.33.47-.6,1.48-1.29,3-.32-1.75-.42-3-.84-3.17a2.3,2.3,0,0,1-.86-.59,2.34,2.34,0,0,0-1.15-.54A2.13,2.13,0,0,1,97.71,541a5.82,5.82,0,0,0-2.1-4A4.11,4.11,0,0,1,94,533.36c.07-1.51-1.17-2.67-1.79-4.12s-2.08-2.55-4.81-1.64c1.17-2.1,1.24-3.72.44-4.54A2.25,2.25,0,0,0,86,522.5a6.91,6.91,0,0,0-2.75.93,6.66,6.66,0,0,0,.2-1.66,4.12,4.12,0,0,0-.25-1.29,2.43,2.43,0,0,0-1.4-1.51,2.76,2.76,0,0,0-2,.16,5.19,5.19,0,0,0-2,1.82c-.16-1.37-.47-3.14-1.5-3.28-.8-.13-1.6-.36-2.39-.47a11.41,11.41,0,0,0-2.37-.25,4.94,4.94,0,0,0-4.19,1.95c-.27.36-.47.21-.78,0-1.22-.72-2-.9-2.66-.52s-1,1.34-1.33,3c-1-1-2.16-2-3.19-1.58-1.78.69-3.48,1.44-5.16,2.24a2.08,2.08,0,0,0-.95,2c0,.81-.1,1.06-.9.63-2.5-1.3-3.43-.55-3.21,2.4.08,1-.11,1-.82.36-1.1-1-2-1.18-2.74-.91-1.06.36-.56,3.69-1.12,3.38-1.36-.85-2.53-1.76-3.51-1.3a8.35,8.35,0,0,1-1.93.56,3.16,3.16,0,0,0-1.7.9,2.5,2.5,0,0,1-1.6.94,2.85,2.85,0,0,1-1.74-.34c-.46-.2-.7.51-1,1.18s-.54,1.34-.84,1-.68-1-1-1.42a1.55,1.55,0,0,0-.94-.72l-.76-.06a6.92,6.92,0,0,1-.72-.16,5.25,5.25,0,0,1-.7-.19l-.66-.27c-.33-.1-.66-.15-1.23.36s-.75.17-.86-.35a4.74,4.74,0,0,0-1.2-2.57,11.27,11.27,0,0,0-2.45-1.69l-9.3-5.33L13,527v.07c0,.32.56.79,1,1.13.73.55.68.68-.19.83-3.08.53-3.49,1.61-1.57,3.81.37.43.57.62-.12.83-3.08,1-3.16,1.92-.58,4.45-1.44.26-2.65.62-2.95,1.61s1.3,2,1.37,2.83-2.25.89-2.66,1.89,2.27,2.47,1.18,3c-1.35.65-2.22,1.33-2.43,2.38a30.88,30.88,0,0,1-.77,3.31c-.44,1.37-.11,2.71,2.49,4-4.55.81-5,2.3-1.6,4.8l.62,2.42.39-.12c-1.06,2-1.49,3.13-1,3.73s1.78.64,4.11.29c-.87,1.15-1.73,2.46-1.22,3.13.79,1,1.34,2.34,2.29,3.49a5.25,5.25,0,0,0,4.24,2.1c.33,0,.58,0,.63.4a2.72,2.72,0,0,0,2,2.68,3,3,0,0,0,1.7-.23,5.89,5.89,0,0,0,1.75-1.26c.29,1.7,1.11,3,2.51,3.09,2.46.21,5.1.44,7-.89a10.74,10.74,0,0,1,4.91-2,6.92,6.92,0,0,0,4.76-3,6.24,6.24,0,0,1,3.73-2.93,6.31,6.31,0,0,0,2.29-1.29,5.56,5.56,0,0,0,1.45-2.1,4.82,4.82,0,0,1,3.14-2.92,7.44,7.44,0,0,0,2-1.13,5,5,0,0,0,.77-.8,4.33,4.33,0,0,0,.58-.92,3.68,3.68,0,0,1,1.26-1.59,3.35,3.35,0,0,1,1.84-.63,4,4,0,0,0,1.69-.63,6.39,6.39,0,0,1,1.49-.83c.62-.18.95-.91,1-2.45,0-1.05.24-.94.71-.15.77,1.28,1.29,2,1.76,2,.24,0,.46-.22.71-.61a11.23,11.23,0,0,0,.84-1.62c.43-.93.57-.76.72.17.24,1.45.63,2,1.25,2.3.79.35,2.55-2.51,2.82-1.82.45,1.27.46,2.93,1.49,3.27,1.31.44,2.5,1.56,4.12,1.58s3.13.26,4.21,1.73c0,0,.08,0,.13.05,1,.42,2.29-1.6,2.89-1.3s.62,2.56,1.69,2.81c.9.2,1.77.57,2.66.86a6.47,6.47,0,0,0,2.75.3,5.77,5.77,0,0,1,4.26.76,6.85,6.85,0,0,0,5.62.52,6.78,6.78,0,0,1,4.59-.09,8.93,8.93,0,0,0,1.43.31,7.56,7.56,0,0,0,1.47,0,5.61,5.61,0,0,0,2.75-1,6.63,6.63,0,0,1,2.35-1,9.35,9.35,0,0,1,2.56-.21,6.54,6.54,0,0,0,5-2.19,8.33,8.33,0,0,1,1.05-1,6.69,6.69,0,0,1,1.11-.81,22.92,22.92,0,0,1,2.68-1.17A6.84,6.84,0,0,0,128.4,559a11.62,11.62,0,0,0,2-4,5,5,0,0,0,0-.9L125.19,553h0l5.22,1.08a5.1,5.1,0,0,0,.29-1.16,9.66,9.66,0,0,0-.95-5.65A7.18,7.18,0,0,0,126.29,543.88Z" style="fill:#fff;"/><path d="M122.5,740.85c-.45-.51-.9-1.07-1.33-1.49a5.15,5.15,0,0,0-1.45-1.13,3.78,3.78,0,0,0-1.65-.48,3.65,3.65,0,0,0-3.13,1.61,5.18,5.18,0,0,0-2.41-3.59,1.93,1.93,0,0,0-2.68.7c-1.22,1.93-1.67,2-3.26.47s-2.86-.13-3.71,3.18c-1-1.5-2.07-2.55-3.1-2.29-1.58.38-3.1.14-4.14.82s-1.79.5-2-.24c-.16-.4-.21-.67-.4-.81s-.22-.09-.4-.22a1.66,1.66,0,0,0-.31-.11c-.12,0-.24-.12-.39-.17a2.35,2.35,0,0,1-1.34-2.82c.2-1.39-.89-2.64-1.45-4.3a4.49,4.49,0,0,0-.63-1.24,3.67,3.67,0,0,0-1-1,4,4,0,0,0-3.45-.23c1-2.37,0-4.51-1.58-5.29a3.58,3.58,0,0,0-2.65,0,4.73,4.73,0,0,0-2.37,2.19,4.69,4.69,0,0,0-2.33-2.19,3,3,0,0,0-2.33,0c-1.3.58-1.83,2.14-1.52,4.19-1.06-.91-2.29-2.05-3-1.68-2.34,1.19-5.39,1.19-6.44,4.6-.13.41-.36.32-.69.23-2.58-.72-3.14-.13-3.15,3.28-1.2-.83-2.41-1.62-3.33-1.11L52.39,733c-.75.4-1.48.76-2.19,1.1-.52.25-.76.87-.8,1.83,0,.78-.15,1-.8.46-2-1.76-2.36-1.48-3,1.32-.25,1-.43.88-.67,0-.38-1.39-.62-2-.92-2.14s-.6.54-1.15,1.1-1.1,1-1.08.7c.14-1.5.9-2.6.51-3-.55-.52-.38-1.69-1.46-2.48s-1.27-2.16-.84-3.62c.34-1.15-3.05-1.22-2.44-2.09.76-1.09,1.73-2.1,1.42-3.28-.2-.83-.49-1.76-.76-2.68s-.63-1.8-.93-2.7a1.85,1.85,0,0,0-1.51-1.31c-1-.15-.82-.65-.81-1.4.14-3.59-2.29-6.27-5.22-7.78a2.44,2.44,0,0,0-1.59.26c-.86.36-1,.24-.74-.66.35-1.56.2-2.64-.37-3.22s-1.66-.6-3.11-.14c-.58.19-.83.32-.9-.44-.14-1.72-.6-2.7-1.39-3s-1.95.06-3.52,1.09c-.14-1.54-.58-2.79-1.79-3.27s-2.48,1.14-3.38,1.21c-.66.07-1.05-1.19-1.81-2L10,695.62l-4.64,7.3a1.48,1.48,0,0,0-.28.88c.09,1.21,3.13,1.35,2.37,2.34-.93,1.21-1.41,2.25-1.15,3.34a35.58,35.58,0,0,1,.75,3.5c.2,1.5,1.07,2.65,4,2.75-3.88,2.83-3.51,4.46,1,5.39-3.57,2.88-3.23,4.2,1.39,5.37-1.22.77-2.49,1.71-2.27,2.52.69,2.51,0,5.5,3,7.27.27.16.45.28.22.58-1.79,2.29-.53,3.51,2.56,4-1.32,1-2.13,2-1.84,3,.51,1.76.48,3.76,1.71,5.2a5.58,5.58,0,0,1,1.31,4.32,7,7,0,0,0,1.65,4.92,5.47,5.47,0,0,1,1.43,4.37,6.48,6.48,0,0,0,.38,2.82l.85,2.28,1.91,1a5.87,5.87,0,0,0,2.28.63,5.92,5.92,0,0,1,4.11,2.28,7.37,7.37,0,0,0,5,2.43,12.21,12.21,0,0,1,5.54,1.74c1.9,1,4.38.67,6.66.35a2.86,2.86,0,0,0,2.63-2.73c.12-1.13.32-1,1.14-.42a4.79,4.79,0,0,0,2,.87,2.39,2.39,0,0,0,1.61-.3,2.12,2.12,0,0,0,.94-1.3,4.4,4.4,0,0,0,.06-2.13c-.2-1.1,0-1.06.92-.65a2.88,2.88,0,0,0,3.25-.29c1.14-.93-.6-3.88.17-3.87,1.43,0,3.08.49,3.81-.38.95-1.12,2.26-1.66,2.73-2.76s1.32-2,2.47-1.32c0,0,0,0,.07,0,.28,0,.32-.68.44-1.27s.24-1.22.51-1.18.62.53.93,1.06.58,1,1,1c1.25-.09,2.6.73,4.22.39a4.18,4.18,0,0,1,3.76,1,6.69,6.69,0,0,0,2.5,1.29,7.52,7.52,0,0,0,3,.2,6.73,6.73,0,0,1,4.58.88,7,7,0,0,0,5.63.74,6.87,6.87,0,0,1,5,.32,6.9,6.9,0,0,0,5.5-.23c1.95-1,3.74-1.08,6-1.2,2.09-.12,4.07-1.47,5.83-2.89.17-.14.23-.38.37-.53l-3.36-4.14h0l3.36,4.14a3.85,3.85,0,0,0,.78-.51,15.16,15.16,0,0,0,2.83-3,7.32,7.32,0,0,0,1.38-3.71c.09-1.2.1-2.3.22-3.39s.26-2.22.41-3.58a6.29,6.29,0,0,0-.89-3.69A13.59,13.59,0,0,0,122.5,740.85Z" style="fill:#fff;"/><path d="M524,718.84c-4,2.18-3.3,4.67,1.36,4.62-1.08.94-2.1,2.19-1.61,2.91.35.57.68,1.16,1.05,1.75a8.44,8.44,0,0,0,1.27,1.69,4.15,4.15,0,0,0,4.18,1.26c.3-.07.51-.13.61.23a3.32,3.32,0,0,0,.88,1.6,1.36,1.36,0,0,0,1.14.41c.8-.07,1.67-.88,2.42-2.21.33,1.64,1,2.71,1.95,2.76,1.75,0,3.66.4,5.06-.67a5,5,0,0,1,3.79-1.1,4.41,4.41,0,0,0,3.9-1.81,3.76,3.76,0,0,1,3.2-1.79,3.61,3.61,0,0,0,3.27-2.2,3,3,0,0,1,2.68-1.9,3.37,3.37,0,0,0,2.8-1.89,2.38,2.38,0,0,1,2.56-1.55c1.13.1,1.75-.83,2.61-1.14.51-.21.72-.82.56-2.4-.11-1,.06-.93.55-.17,1.65,2.53,2.09,2.46,2.53-.58.16-1,.29-.82.57.06.44,1.38.84,1.87,1.3,1.95s.61-.65.92-1.36.6-1.37.72-1.08c.48,1.08.61,2.75,1.25,2.76a3.67,3.67,0,0,1,1.21.43,2.13,2.13,0,0,0,1.32.13,2.74,2.74,0,0,1,1.45-.07,1.62,1.62,0,0,1,.93,1.19s0,0,.07,0c.5.29,2-1.56,2.29-1.25s-.33,2.35.27,2.67a11.24,11.24,0,0,1,1.42,1,2.88,2.88,0,0,0,1.65.73,2.41,2.41,0,0,1,2.31,1.66,3.62,3.62,0,0,0,3,2.26,3,3,0,0,1,2.54,1.83,3.73,3.73,0,0,0,3.21,2.28,3.54,3.54,0,0,1,3,2,3.81,3.81,0,0,0,3.43,1.86,4.42,4.42,0,0,1,3.66,1.66,3.77,3.77,0,0,0,1.69.92c.31.09.63.16.95.22l.48.1.12,0,.34.09.59.12a6.33,6.33,0,0,0,2.93-.24,5.26,5.26,0,0,0,1.92-1.14,7.23,7.23,0,0,0,1-1.25l-4.6-2.71h0l4.6,2.71a3.32,3.32,0,0,0,.15-.88,12.86,12.86,0,0,0-.11-2.76,9.45,9.45,0,0,0-1.07-3.09,9,9,0,0,0-1.78-2.25,2.47,2.47,0,0,0-.86-.44,2.57,2.57,0,0,1-2.13-2.26c-.16-1.15-1.34-1.49-1.92-2.32s-1.64-1-4.07.36c1.74-2.83,1.92-4.43,0-3.79s-2.13.31-1.25-1.45-.54-1.77-3.59-.75c1-1.43,1.67-2.66,1.14-3.27-.79-.94-1.18-2.25-2.44-2.76a2.74,2.74,0,0,1-1.83-2.31,3.73,3.73,0,0,0-2.33-3,2.34,2.34,0,0,1-1.73-2.35c0-1.18-1.11-1.67-1.58-2.58s-1.51-1.34-4.09-.25c2.8-3.61,2.14-4.53-2.13-3.18,3.1-3.53,1.59-4.55-2.18-3.17.9-1,2-2.17,1.73-2.67-1-1.57-.7-3.95-3.78-4.12-.37,0-.27-.22-.16-.5.86-2.13.37-2.44-2.8-1.86.86-1.08,1.7-2.14,1.29-2.76l-.1-.16-2.35-3.64-3.83,1.13c-1.32.39-2.65.77-3.94,1.24-.51.18-.78.79-.8,1.74,0,.78-.09,1-.74.44-2-1.69-3-1-2.71,1.87.11,1,0,1-.7.28-1-1.06-1.84-1.24-2.54-1-1,.38,0,3.62-.55,3.31-1.33-.69-2.66-1.46-3.46-.76-1,.82-2.49,1.15-2.91,2.53a3.21,3.21,0,0,1-2.7,2.35c-1.07.29.94,3,0,2.86-1.17-.14-2.4-.46-2.91.18-.72.92-1.46,1.77-2.2,2.61a1.08,1.08,0,0,0-.06,1.37c.43.83,0,.75-.56.8-2.56.2-3.45,1.8-3.94,3.8a3,3,0,0,0,.54,1.31c.45.77.36.83-.38.45-2.63-1.36-3.1-1-2.35,1.51.14.5.22.75-.35.43-2.57-1.44-2.62-1.19-2,2.1-1-1-1.77-1.77-2.21-1.6s-.09,1.94-.43,2.31c-.15.17-.46-.27-.74-.75s-.54-1.07-.73-1.1-.3.66-.48,1.24-.4,1.11-.54.61c-.34-1.2-.42-1.91-.79-2a4,4,0,0,1-.74-.23L528.48,706l-2.1,1.52-1.52,1.1a3.47,3.47,0,0,0-1.41,2.4,3.58,3.58,0,0,0,1.54,2.82,5.76,5.76,0,0,0-2.83.56,2.05,2.05,0,0,0-1.17,1.41,1.81,1.81,0,0,0,.62,1.64A5.47,5.47,0,0,0,524,718.84Zm82.38,16.31-.06-.05a1.53,1.53,0,0,1-.39-.92c0-.06,0-.13,0-.2.07.17.14.35.2.54a2.72,2.72,0,0,0,.18.42l.11.19S606.41,735.16,606.39,735.15Z" style="fill:#fff;"/><path d="M677.74,797.8a20.1,20.1,0,0,0-2.42-3.24,3,3,0,0,0-3.86-.87c-1,.5-1.07.27-1-.75.18-3.45-2.06-4.7-4.82-2.71-.92.65-1,.42-1-.56a3.05,3.05,0,0,0-1.68-2.87c-1.35-.68-3.5,2-3.85,1.29-.68-1.34-1-3.11-2.44-3.46-1.78-.46-3.49-1.49-5.36-1.32s-3.58.14-5.1-1.21c0,0-.1,0-.15,0-1.16-.28-2.26,1.92-3,1.68s-1.22-2.44-2.47-2.56c-2.1-.17-4.23-1-6.31-.41a7.37,7.37,0,0,1-4.9-.18,8.39,8.39,0,0,0-3.18-.51,9.53,9.53,0,0,0-3.17.71,8.36,8.36,0,0,1-2.54.72,9,9,0,0,1-2.69,0,8.52,8.52,0,0,0-6.53,1.74,10.46,10.46,0,0,1-2.61,1.64,18.45,18.45,0,0,1-2.87,1,8.11,8.11,0,0,0-4.94,3.7,9.31,9.31,0,0,1-4.31,4c-1.63.86-2.63,2.43-3.8,3.73a2.54,2.54,0,0,0-.45.74l-.05,0a1.12,1.12,0,0,0-.18.1c-1.07.92-2.44,1.34-3.16,2.45s-1.74,1.43-2.55.74a1.06,1.06,0,0,0-.82-.36,1.08,1.08,0,0,1-.8-.18c-.51-.41-1.65-.54-4.15.86a6.55,6.55,0,0,0,.55-3.85,1.82,1.82,0,0,0-2.33-1.19c-1.15.23-1.82.28-2.24,0s-.6-.94-.73-2.1a2.2,2.2,0,0,0-.56-1.32,1.93,1.93,0,0,0-1.25-.47,4.65,4.65,0,0,0-1.75.3,9.64,9.64,0,0,0-2.12,1.16,6.43,6.43,0,0,0-.55-2.48,2.52,2.52,0,0,0-1.63-1.34c-1.13-.34-2.29-.62-3.45-.88a8.74,8.74,0,0,0-3.47,0,10.1,10.1,0,0,1-2.76.45,10.67,10.67,0,0,1-2.79-.18,9.76,9.76,0,0,0-3.61.19,9,9,0,0,0-3.27,1.58,17.65,17.65,0,0,1-2.34,1.53,10.08,10.08,0,0,1-2.69.85c-2,.34-3.31,2.11-4.85,3.32a6.1,6.1,0,0,0-1.05,1.09,2.61,2.61,0,0,0-.55,1.24,4.73,4.73,0,0,0,.84,3.12c-2.35-.63-3.79-.62-4.4.06s-.37,2,.49,4.16c-2.21-1-3.48-1.16-4-.7a1.63,1.63,0,0,0-.3,1.28c0,.56.14,1.45.27,2.41A14.58,14.58,0,0,1,529,808.1a4.28,4.28,0,0,0-.46-.91c-.13,0-.15-.27-.28-.41l-1.77-1.89-3.62,2.26a13.51,13.51,0,0,0-1.42,1,11.12,11.12,0,0,0-1.22,1.34,10.76,10.76,0,0,0-.88,1.56,10.64,10.64,0,0,0-.47,1.62,5.9,5.9,0,0,0,1.44,5.18c.44.45.37.75.3,1.28a4.55,4.55,0,0,0,1.4,4.21,4.65,4.65,0,0,0,4.61.25,6.93,6.93,0,0,0,.56,1.23,5.32,5.32,0,0,0,.71,1,3.21,3.21,0,0,0,2.3,1.08,17.89,17.89,0,0,0,8.36-2,2.54,2.54,0,0,0,1.37-2.28c0-.86.15-1.14,1.08-.84,2.92.84,4-.19,3.5-3.16-.16-1.05.06-1.07.85-.49,1.23.88,2.09,1,2.78.74.47-.16.51-1,.61-1.84s.2-1.55.43-1.34c1.17,1,1.7,2.37,2.37,2.27.92-.08,1.66.81,3,.56s2.53.65,3.28,2c.58,1.08,3.14-1.15,3.34-.05.23,1.35.22,2.78,1.29,3.49,1.52,1,3.11,2.14,5,3.18a2.16,2.16,0,0,0,2.21.16c1-.54,1.15,0,1.71.61a8.42,8.42,0,0,0,4.79,2.65,12,12,0,0,0,5.44-.35c.41-.12.8-.74,1-1.3.39-.87.55-.87,1.1-.1,2,2.69,3.91,2.53,5.37-.35.28-.56.37-.81,1-.39,3,2,4.56,1.1,5.17-2.73a6.55,6.55,0,0,0,2,.83,2.62,2.62,0,0,0,1.89-.32c1.17-.75.73-2.68,1.29-3.43s2.57.49,3.64-.18-.12-3.51,1.14-3.3c1.53.26,2.65.29,3.47-.32a10,10,0,0,1,2.59-1.5c1.11-.36,1.6-1.14,1.74-4,.63,1,1.1,1.8,1.48,2.3s.67.8,1,.82a.71.71,0,0,0,.46-.18,2.49,2.49,0,0,0,.55-.52c.4-.49.89-1.23,1.55-2.15a25.29,25.29,0,0,0,.65,2.55c.22.61.45.92.81,1.05.69.23,1.78-.47,3.71-1.9-.15,1.46-.29,3,.46,3.37,2.32,1.14,4.14,3.9,7.88,3.1.32-.07.57-.11.66.28.73,3,3,3.07,5.46.9.18,1.75.75,3,2,3.36,2.25.6,4.63,1.58,6.91,1a11.18,11.18,0,0,1,5.72,0,8.91,8.91,0,0,0,6.46-1.21,11,11,0,0,1,5.52-2,8.19,8.19,0,0,0,5.83-3.4,16.8,16.8,0,0,1,4.6-4.38,9,9,0,0,0,3.65-6.49c.14-2.7.38-5,.48-7.88A7.64,7.64,0,0,0,677.74,797.8Z" style="fill:#fff;"/></g></g></svg>